<?xml version="1.0" encoding="UTF-8" standalone="no"?>
<svg width="12px" height="16px" viewBox="0 0 12 16" version="1.1" xmlns="http://www.w3.org/2000/svg" xmlns:xlink="http://www.w3.org/1999/xlink">
    <!-- Generator: Sketch 41.1 (35376) - http://www.bohemiancoding.com/sketch -->
    <title>icon_ipahone</title>
    <desc>Created with Sketch.</desc>
    <defs></defs>
    <g id="icon" stroke="none" stroke-width="1" fill="none" fill-rule="evenodd">
        <g id="备注" transform="translate(-112.000000, -676.000000)">
            <g id="Group-16" transform="translate(32.000000, 271.000000)">
                <rect id="Rectangle-5" fill="#FFFFFF" x="0" y="0" width="540" height="537"></rect>
                <g id="Group-16-Copy" transform="translate(18.000000, 256.000000)"></g>
                <g id="Page-1" transform="translate(78.000000, 405.000000)" fill="#000000" opacity="0.300000012">
                    <g id="icon_ipahone" transform="translate(2.000000, 0.000000)">
                        <path d="M10,0 L2,0 C0.9,0 0,0.9 0,2 L0,14 C0,15.1 0.9,16 2,16 L10,16 C11.1,16 12,15.1 12,14 L12,2 C12,0.9 11.1,0 10,0 L10,0 Z M10,1 C10.6,1 11,1.4 11,2 L11,14 C11,14.6 10.6,15 10,15 L2,15 C1.4,15 1,14.6 1,14 L1,2 C1,1.4 1.4,1 2,1 L10,1 L10,1 Z" id="Fill-1"></path>
                        <polygon id="Fill-3" points="1 12 11 12 11 11 1 11"></polygon>
                        <path d="M6.5,14 L5.5,14 C5.2,14 5,13.8 5,13.5 C5,13.2 5.2,13 5.5,13 L6.5,13 C6.8,13 7,13.2 7,13.5 C7,13.8 6.8,14 6.5,14" id="Fill-5"></path>
                    </g>
                </g>
            </g>
        </g>
    </g>
</svg>