<?xml version="1.0" encoding="UTF-8" standalone="no"?>
<svg width="16px" height="12px" viewBox="0 0 16 12" version="1.1" xmlns="http://www.w3.org/2000/svg" xmlns:xlink="http://www.w3.org/1999/xlink">
    <!-- Generator: Sketch 41.1 (35376) - http://www.bohemiancoding.com/sketch -->
    <title>icon_youxiang</title>
    <desc>Created with Sketch.</desc>
    <defs></defs>
    <g id="icon" stroke="none" stroke-width="1" fill="none" fill-rule="evenodd">
        <g id="备注" transform="translate(-110.000000, -707.000000)">
            <g id="Group-16" transform="translate(32.000000, 271.000000)">
                <rect id="Rectangle-5" fill="#FFFFFF" x="0" y="0" width="540" height="537"></rect>
                <g id="Page-1" transform="translate(78.000000, 405.000000)" opacity="0.300000012">
                    <g id="icon_youxiang" transform="translate(0.000000, 31.000000)">
                        <path d="M14,0 L2,0 C0.9,0 0,0.9 0,2 L0,10 C0,11.1 0.9,12 2,12 L14,12 C15.1,12 16,11.1 16,10 L16,2 C16,0.9 15.1,0 14,0 M14,1 C14.6,1 15,1.4 15,2 L15,10 C15,10.6 14.6,11 14,11 L2,11 C1.4,11 1,10.6 1,10 L1,2 C1,1.4 1.4,1 2,1 L14,1" id="Fill-6" fill="#000000"></path>
                        <path d="M1,1 L6.6,6.6 C7.4,7.4 8.6,7.4 9.4,6.6 L15,1" id="Stroke-7" stroke="#000000"></path>
                        <path d="M1,11 L5,5" id="Stroke-8" stroke="#000000"></path>
                        <path d="M11,5 L15,11" id="Stroke-9" stroke="#000000"></path>
                    </g>
                </g>
            </g>
        </g>
    </g>
</svg>