<?xml version="1.0" encoding="UTF-8" standalone="no"?>
<svg width="20px" height="20px" viewBox="0 0 20 20" version="1.1" xmlns="http://www.w3.org/2000/svg" xmlns:xlink="http://www.w3.org/1999/xlink">
    <!-- Generator: Sketch 39.1 (31720) - http://www.bohemiancoding.com/sketch -->
    <title>icon－rar</title>
    <desc>Created with Sketch.</desc>
    <defs></defs>
    <g id="任务" stroke="none" stroke-width="1" fill="none" fill-rule="evenodd">
        <g id="状态汇总" transform="translate(-283.000000, -317.000000)">
            <g id="icon-20" transform="translate(72.000000, 317.000000)">
                <g id="icon－rar" transform="translate(211.000000, 0.000000)">
                    <g id="iconfont-fujianrar" transform="translate(2.000000, 2.000000)" fill="#F6A623">
                        <path d="M11.4591511,13.8842137 L12.4276763,13.9957496 C12.5365496,14.0083542 12.6266137,13.934974 12.6278595,13.8355542 L12.6313038,13.5579603 C12.6324519,13.4698015 12.5526718,13.3902168 12.4541069,13.378858 L11.5773802,13.277826 C11.478913,13.2664672 11.3826443,13.3257282 11.3631756,13.411884 L11.301716,13.682687 C11.2796824,13.779713 11.3502779,13.8716092 11.4591511,13.8842137 L11.4591511,13.8842137 Z" id="Fill-1"></path>
                        <path d="M14.934742,1.37038168 L10.6565863,0.844140458 L10.6565863,1.24404275 L14.786174,1.75196336 L13.1421802,14.8856427 L10.6565863,14.5799084 L10.6565863,14.979713 L13.1922809,15.2916519 C13.2047634,15.2931908 13.2172702,15.2939481 13.2295817,15.2939481 C13.3789069,15.2939481 13.5082992,15.1836336 13.5271084,15.0329649 L15.1957008,1.70235115 C15.2161221,1.53927328 15.0993344,1.39060763 14.934742,1.37038168 L14.934742,1.37038168 Z" id="Fill-2"></path>
                        <path d="M6.59816869,11.9999878 C6.9990883,11.9999878 7.19999385,11.8118548 7.19999385,11.4363409 L7.19999385,10.7999878 L5.8999939,10.7999878 L5.8999939,11.4363409 C5.91572072,11.7999762 6.1485828,11.9876894 6.59816869,11.9999878 L6.59816869,11.9999878 Z" id="Fill-3"></path>
                        <path d="M10.2790107,0.0020519084 L0.377575573,0.0020519084 C0.169087023,0.0020519084 0,0.1696 0,0.376378626 L0,15.6257221 C0,15.8324031 0.169087023,15.9999511 0.377575573,15.9999511 L10.2790107,15.9999511 C10.4874992,15.9999511 10.6565863,15.8324031 10.6565863,15.6257221 L10.6565863,0.376378626 C10.6565863,0.1696 10.4874992,0.0020519084 10.2790107,0.0020519084 L10.2790107,0.0020519084 Z M8,11.3783547 C8,12.076533 7.7240647,12.5079771 7.17549678,12.6756709 C7.0021284,12.7287018 6.80298068,12.7568068 6.5748656,12.7568068 C6.16661621,12.7568068 5.84380103,12.673233 5.60174125,12.5111172 C5.38555256,12.3662818 5.23323884,12.1591317 5.14975413,11.8851615 L5.14911194,11.885454 L3,13 L3,12.1892261 L5.10145227,11.1757099 L5.10145227,10.7094516 L3,10.7094516 L3,10 L8,10 L8,11.3783547 L8,11.3783547 Z M8,8.33709566 L3,10 L3,9.19101367 L4.18360214,8.83145217 L4.18360214,7.16854783 L3,6.7865205 L3,6 L8,7.66290434 L8,8.33709566 L8,8.33709566 Z M6.5748656,5.7567304 C6.39461661,5.7567304 6.2321884,5.73935261 6.08427827,5.70773712 C5.95033577,5.67910569 5.83153061,5.63567096 5.72421607,5.58111912 C5.44190474,5.43759142 5.24812389,5.20781838 5.14975413,4.88516874 L3,6 L3,5.18921186 L5.10145227,4.1757218 L5.10145227,3.75 L3,3.75 L3,3 L8,3 L8,4.3783652 C8,5.29718432 7.5248023,5.7567304 6.5748656,5.7567304 Z" id="Fill-4"></path>
                        <polygon id="Fill-5" points="5 7.29998779 5 8.62021985 6.95515115 7.96009161"></polygon>
                        <path d="M5.8999939,3.79998779 L5.8999939,4.43637796 C5.91000603,4.66819019 6.009213,4.82783446 6.19564896,4.91674538 C6.30162213,4.96732419 6.43520866,4.99554404 6.59816869,4.99998784 C6.9990883,4.99998784 7.19999385,4.81191377 7.19999385,4.43637796 L7.19999385,3.79998779 L5.8999939,3.79998779 L5.8999939,3.79998779 Z" id="Fill-6"></path>
                        <path d="M12.3929405,2.28572824 L13.3918046,2.40090382 C13.5304305,2.41685496 13.6571603,2.31799695 13.6733802,2.1811542 L13.6758473,2.16043969 C13.6919939,2.02362137 13.5917924,1.89852824 13.453142,1.8825771 L12.4543023,1.76742595 C12.3155542,1.75147481 12.1889221,1.85033282 12.1727023,1.98717557 L12.1702351,2.00786565 C12.1540153,2.14480611 12.2542901,2.26980153 12.3929405,2.28572824 L12.3929405,2.28572824 Z" id="Fill-7"></path>
                        <path d="M12.2228031,3.72323664 L13.2216672,3.83841221 C13.3603908,3.85433893 13.4870229,3.75548092 13.5032427,3.6186626 L13.5057344,3.59794809 C13.5219542,3.46103206 13.421655,3.33601221 13.2830046,3.3200855 L12.2841649,3.20490992 C12.1455145,3.18898321 12.0188092,3.28784122 12.0025649,3.42465954 L12.0000977,3.44547176 C11.9839756,3.58229008 12.0841527,3.70730992 12.2228031,3.72323664 L12.2228031,3.72323664 Z" id="Fill-8"></path>
                        <path d="M12.7348275,2.78048244 L12.7323359,2.80119695 C12.716116,2.93811298 12.8163176,3.06313282 12.9550656,3.07905954 L13.9539053,3.19423511 C14.0925557,3.21016183 14.2192855,3.11130382 14.2355053,2.9744855 L14.2378748,2.95377099 C14.2540947,2.81692824 14.1539176,2.69183511 14.0152672,2.6759084 L13.0163053,2.56073282 C12.8776794,2.54480611 12.7509496,2.64366412 12.7348275,2.78048244 L12.7348275,2.78048244 Z" id="Fill-9"></path>
                        <path d="M12.0526656,5.16084275 L13.0516275,5.27589618 C13.1902779,5.29194504 13.3169832,5.19298931 13.3332031,5.05614656 L13.3355969,5.03545649 C13.3518168,4.89861374 13.2516153,4.77352061 13.1129649,4.75759389 L12.1140275,4.64251603 C11.9753771,4.6264916 11.8486718,4.7254229 11.8325496,4.86226565 L11.830058,4.88298015 C11.8138382,5.01979847 11.9140153,5.14479389 12.0526656,5.16084275 L12.0526656,5.16084275 Z" id="Fill-10"></path>
                        <path d="M13.8451298,4.11341679 L12.8462901,3.99824122 C12.7076397,3.98229008 12.5809099,4.08114809 12.5646901,4.21799084 L12.5622229,4.23877863 C12.5460763,4.37562137 12.6462779,4.50061679 12.7849282,4.51664122 L13.7837679,4.63171908 C13.922516,4.64767023 14.0491481,4.54881221 14.0653679,4.41196947 L14.0678351,4.39127939 C14.0839573,4.25443664 13.9837802,4.12934351 13.8451298,4.11341679 L13.8451298,4.11341679 Z" id="Fill-11"></path>
                        <path d="M11.882626,6.59832672 L12.8814901,6.71340458 C13.0201405,6.72942901 13.1468458,6.63049771 13.1630656,6.49365496 L13.1655573,6.47294046 C13.1816794,6.33612214 13.0814779,6.21112672 12.9428519,6.19507786 L11.9439878,6.08 C11.8052397,6.06397557 11.6786321,6.1629313 11.6624122,6.29977405 L11.6599206,6.32046412 C11.6437008,6.45730687 11.7439023,6.58230229 11.882626,6.59832672 L11.882626,6.59832672 Z" id="Fill-12"></path>
                        <path d="M13.6749924,5.55090076 L12.6761527,5.4358229 C12.5375023,5.41979847 12.4107725,5.5187542 12.3945527,5.65557252 L12.3921832,5.67628702 C12.3759634,5.81312977 12.4761405,5.93812519 12.6147908,5.95414962 L13.6137282,6.06922748 C13.7523786,6.08525191 13.8791084,5.98632061 13.8952305,5.84947786 L13.8977221,5.82876336 C13.913942,5.69194504 13.8136427,5.56694962 13.6749924,5.55090076 L13.6749924,5.55090076 Z" id="Fill-13"></path>
                        <path d="M11.7124885,8.03583511 L12.7113527,8.15101069 C12.8501008,8.1669374 12.9767084,8.06807939 12.9929282,7.93126107 L12.9954198,7.91044885 C13.011542,7.77360611 12.9113649,7.64861069 12.7727145,7.63258626 L11.7738504,7.5175084 C11.6352,7.50158168 11.5084947,7.60043969 11.4922748,7.73725802 L11.4897832,7.75797252 C11.4736611,7.89479084 11.5738626,8.0199084 11.7124885,8.03583511 L11.7124885,8.03583511 Z" id="Fill-14"></path>
                        <path d="M13.5049527,6.98840916 L12.5060153,6.8733313 C12.3673649,6.85740458 12.2406595,6.9562626 12.2244397,7.09308092 L12.2220458,7.11379542 C12.205826,7.25061374 12.3060031,7.37563359 12.4446534,7.39165802 L13.4436153,7.50673588 C13.5822412,7.52276031 13.708971,7.42390229 13.7251908,7.28698626 L13.7275847,7.26627176 C13.7438046,7.12942901 13.6436031,7.00443359 13.5049527,6.98840916 L13.5049527,6.98840916 Z" id="Fill-15"></path>
                        <path d="M11.5423756,9.47334351 L12.541313,9.58849466 C12.6799634,9.6044458 12.8066687,9.50558779 12.822913,9.36874504 L12.8252824,9.34805496 C12.8415023,9.21121221 12.7413252,9.08611908 12.6026748,9.07019237 L11.603713,8.95501679 C11.465087,8.93906565 11.3383573,9.03792366 11.3222351,9.17476641 L11.3197435,9.19548092 C11.3035237,9.33239695 11.4037252,9.45739237 11.5423756,9.47334351 L11.5423756,9.47334351 Z" id="Fill-16"></path>
                        <path d="M13.3348397,8.42591756 L12.3359756,8.31083969 C12.1972275,8.29488855 12.0706198,8.39374656 12.0544,8.53058931 L12.0519084,8.55127939 C12.0356885,8.68812214 12.1358656,8.81321527 12.2746137,8.82914198 L13.2734779,8.94431756 C13.4121282,8.9602687 13.5388336,8.86141069 13.5550534,8.72456794 L13.557545,8.70378015 C13.5736672,8.5669374 13.4734656,8.44194198 13.3348397,8.42591756 L13.3348397,8.42591756 Z" id="Fill-17"></path>
                        <path d="M11.3723359,10.9109252 L12.3711756,11.0260031 C12.509826,11.0419298 12.6365557,10.9430718 12.6527756,10.8062534 L12.655145,10.7855389 C12.6713649,10.6487206 12.5711878,10.5236275 12.4325374,10.5076763 L11.4336733,10.3925985 C11.2949496,10.376574 11.1683176,10.4755298 11.1520977,10.6123481 L11.1496305,10.6330626 C11.1333863,10.7699053 11.2335878,10.8949008 11.3723359,10.9109252 L11.3723359,10.9109252 Z" id="Fill-18"></path>
                        <path d="M13.1647023,9.86349924 L12.1658382,9.74832366 C12.0271878,9.73239695 11.9004824,9.83125496 11.8842626,9.96807328 L11.881771,9.98878779 C11.8656489,10.1257282 11.9658504,10.2507237 12.1044763,10.2666504 L13.1033405,10.381826 C13.2420885,10.3977527 13.3686962,10.2988947 13.384916,10.1620763 L13.3874076,10.1413618 C13.4036275,10.0045435 13.3033282,9.87945038 13.1647023,9.86349924 L13.1647023,9.86349924 Z" id="Fill-19"></path>
                        <path d="M11.3920733,14.1128305 L12.4395969,14.2335511 C12.6611542,14.2591023 12.8413069,14.1028153 12.8400855,13.8971847 L12.8261374,11.6199817 C12.8255756,11.5287695 12.7116458,11.4434687 12.5729954,11.427542 L11.9173618,11.3519634 C11.7786382,11.3360122 11.648,11.3930748 11.6260397,11.4817221 L11.0808183,13.6945099 C11.0315725,13.8943267 11.170516,14.0873527 11.3920733,14.1128305 L11.3920733,14.1128305 Z M11.3631756,13.411884 C11.3827176,13.3257282 11.478913,13.2664672 11.5774779,13.277826 L12.4541069,13.378858 C12.5526718,13.3902168 12.6324519,13.4698015 12.6314015,13.5579603 L12.6278595,13.8355542 C12.6266137,13.9348763 12.5365496,14.0082565 12.4276763,13.9957496 L11.4591511,13.8842137 C11.3502779,13.8716092 11.2797802,13.779713 11.3018137,13.682687 L11.3631756,13.411884 L11.3631756,13.411884 Z" id="Fill-20"></path>
                    </g>
                    <rect id="Rectangle-274" x="0" y="0" width="20" height="20"></rect>
                </g>
            </g>
        </g>
    </g>
</svg>