<?xml version="1.0" encoding="UTF-8" standalone="no"?>
<svg width="20px" height="20px" viewBox="0 0 20 20" version="1.1" xmlns="http://www.w3.org/2000/svg" xmlns:xlink="http://www.w3.org/1999/xlink">
    <!-- Generator: Sketch 39.1 (31720) - http://www.bohemiancoding.com/sketch -->
    <title>icon－weizhiwenjian0</title>
    <desc>Created with Sketch.</desc>
    <defs></defs>
    <g id="任务" stroke="none" stroke-width="1" fill="none" fill-rule="evenodd">
        <g id="状态汇总" transform="translate(-403.000000, -317.000000)">
            <g id="icon-20" transform="translate(72.000000, 317.000000)">
                <g id="未知文件0" transform="translate(331.000000, 0.000000)">
                    <g id="icon-pdf" transform="translate(3.000000, 2.000000)">
                        <path d="M11.0007488,0 L0.998502329,0 C0.447489426,0 0,0.448105505 0,1.00087166 L0,14.9991283 C0,15.5553691 0.44704472,16 0.998502329,16 L12.0014977,16 C12.5525106,16 13,15.5566596 13,15.0097714 L13,1.95399778 L13,2.99999988 L10,0 L11.0007488,0 Z M7.25154027,8.91247472 C7.2470372,8.91481392 7.24322804,8.91634339 7.23868067,8.91862261 C6.9522113,9.05527086 6.76702421,9.35165945 6.76702421,9.67334438 C6.76702421,9.984263 6.51903029,10.2360568 6.2129098,10.2360568 C5.90678931,10.2360568 5.65879539,9.984263 5.65879539,9.67334438 C5.65879539,8.92325603 6.08816725,8.23149772 6.75341163,7.90751857 L6.76702421,7.90060593 C7.22280918,7.68259552 7.51763507,7.21196655 7.51763507,6.70061151 C7.51763507,5.96973159 6.93254542,5.37549991 6.2129098,5.37549991 C5.49327418,5.37549991 4.90818452,5.96973159 4.90818452,6.70061151 C4.90818452,7.01157512 4.66024966,7.26338396 4.35407012,7.26338396 C4.04793486,7.26338396 3.8,7.01157512 3.8,6.70061151 C3.8,5.34943882 4.88246532,4.25 6.2129098,4.25 C7.54335427,4.25 8.6258196,5.34943882 8.6258196,6.70061151 C8.6258196,7.64036997 8.086868,8.5071484 7.25154027,8.91247472 Z M6.2129098,12.375 C5.79790349,12.375 5.46223987,12.0333419 5.46223987,11.6126009 C5.46223987,11.1911101 5.7986417,10.8502617 6.2129098,10.8502617 C6.62791611,10.8502617 6.96352067,11.1919348 6.96352067,11.6126009 C6.96352067,12.0341066 6.62791611,12.375 6.2129098,12.375 Z" id="Combined-Shape" fill="#B0BDCA"></path>
                        <polygon id="Rectangle-2" fill="#CFD9E2" transform="translate(11.500000, 1.500000) scale(-1, -1) translate(-11.500000, -1.500000) " points="10 1.0658141e-14 13 1.0658141e-14 13 3"></polygon>
                    </g>
                    <rect id="Rectangle-837" x="0" y="0" width="20" height="20"></rect>
                </g>
            </g>
        </g>
    </g>
</svg>