<?xml version="1.0" encoding="UTF-8" standalone="no"?>
<svg width="20px" height="20px" viewBox="0 0 20 20" version="1.1" xmlns="http://www.w3.org/2000/svg" xmlns:xlink="http://www.w3.org/1999/xlink">
    <!-- Generator: Sketch 39.1 (31720) - http://www.bohemiancoding.com/sketch -->
    <title>icon－txt</title>
    <desc>Created with Sketch.</desc>
    <defs></defs>
    <g id="任务" stroke="none" stroke-width="1" fill="none" fill-rule="evenodd">
        <g id="状态汇总" transform="translate(-103.000000, -317.000000)">
            <g id="icon-20" transform="translate(72.000000, 317.000000)">
                <g id="txt" transform="translate(31.000000, 0.000000)">
                    <g id="icon-txt" transform="translate(3.000000, 2.000000)">
                        <path d="M11.0007488,0 L0.998502329,0 C0.447489426,0 0,0.448105505 0,1.00087166 L0,14.9991283 C0,15.5553691 0.44704472,16 0.998502329,16 L12.0014977,16 C12.5525106,16 13,15.5566596 13,15.0097714 L13,1.95399778 L13,2.99999988 L10,0 L11.0007488,0 Z M2,7 L8,7 L8,6 L2,6 L2,7 Z M2,5 L8,5 L8,4 L2,4 L2,5 Z M2,12 L11,12 L11,11 L2,11 L2,12 Z M2,10 L11,10 L11,9 L2,9 L2,10 Z" id="Combined-Shape" fill="#E1E1E1"></path>
                        <polygon id="Rectangle-2" fill="#EEEEEE" transform="translate(11.500000, 1.500000) scale(-1, -1) translate(-11.500000, -1.500000) " points="10 1.0658141e-14 13 1.0658141e-14 13 3"></polygon>
                    </g>
                    <rect id="Rectangle-837" x="0" y="0" width="20" height="20"></rect>
                </g>
            </g>
        </g>
    </g>
</svg>