<?xml version="1.0" encoding="UTF-8" standalone="no"?>
<svg width="20px" height="21px" viewBox="0 0 20 21" version="1.1" xmlns="http://www.w3.org/2000/svg" xmlns:xlink="http://www.w3.org/1999/xlink">
    <!-- Generator: Sketch 41.1 (35376) - http://www.bohemiancoding.com/sketch -->
    <title>icon－fanggezi－def</title>
    <desc>Created with Sketch.</desc>
    <defs></defs>
    <g id="icon" stroke="none" stroke-width="1" fill="none" fill-rule="evenodd">
        <g id="备注" transform="translate(-508.000000, -335.000000)" stroke="#D8D8D8" stroke-width="0.2" fill="#D8D8D8">
            <g id="Group-16" transform="translate(37.000000, 272.000000)">
                <g id="下载" transform="translate(435.000000, 63.000000)">
                    <g id="Page-1" transform="translate(38.000000, 5.000000)">
                        <path d="M3.57001818,4.12193636 C3.57001818,4.42320909 3.8142,4.66739091 4.11547273,4.66739091 C4.41674545,4.66739091 4.66092727,4.42320909 4.66092727,4.12193636 C4.66092727,3.82066364 4.41674545,3.57648182 4.11547273,3.57648182 C3.8142,3.57648182 3.57001818,3.82066364 3.57001818,4.12193636" id="Fill-1"></path>
                        <path d="M4.23932727,8.52307273 C3.71769091,8.04125455 3.42914545,6.53334545 1.86323636,4.20943636 C1.86323636,4.20943636 5.77114545,-1.24738182 8.78141818,3.92761818 C9.0416,4.37534545 9.51996364,3.99807273 9.62687273,3.6458 C9.73250909,3.29352727 12.3541455,1.99125455 15.0302364,2.06170909 C15.0302364,2.06170909 14.8723273,5.47643636 13.5166,7.04352727 C13.2620545,7.33670909 13.9393273,7.69461818 14.7496,7.60716364 C14.7496,7.60716364 9.00978182,12.9230727 4.23932727,8.52307273 M15.6108727,6.74470909 C15.3620545,6.6958 15.1177818,6.81625455 14.3961455,6.83325455 C14.3961455,6.83325455 16.1916,3.27761818 15.4006909,1.23443636 C15.4006909,1.23443636 11.0688727,1.14689091 9.06314545,3.11852727 C9.06314545,3.11852727 6.38469566,-2.03096205 1.73932727,3.27761818 C0.338263941,4.87870909 1.07114545,4.59749868 1.40523636,4.87870909 C1.73932727,5.1599195 3.00982153,7.94278926 3.5734579,8.75306199 C4.13709426,9.56324381 8.69278182,14.0514364 15.9643273,7.29007273 C16.0006909,7.25598182 16.0006909,7.18561818 15.9620545,7.10370909 C15.8926909,6.94925455 15.9393273,6.80943636 15.6108727,6.74470909 Z" id="Fill-5"></path>
                    </g>
                </g>
            </g>
        </g>
    </g>
</svg>