<?xml version="1.0" encoding="UTF-8" standalone="no"?>
<svg width="9px" height="8px" viewBox="0 0 9 8" version="1.1" xmlns="http://www.w3.org/2000/svg" xmlns:xlink="http://www.w3.org/1999/xlink">
    <!-- Generator: Sketch 41.1 (35376) - http://www.bohemiancoding.com/sketch -->
    <title>icon－bitianxiang</title>
    <desc>Created with Sketch.</desc>
    <defs>
        <polygon id="path-1" points="0 0.0212197365 0 4.59491095 6.98714753 4.59491095 6.98714753 0.0212197365 3.2488935e-22 0.0212197365"></polygon>
        <polygon id="path-3" points="6.98715068 4.59490615 6.98715068 0.021214942 8.91761454e-06 0.021214942 8.91761454e-06 4.59490615"></polygon>
    </defs>
    <g id="icon" stroke="none" stroke-width="1" fill="none" fill-rule="evenodd">
        <g id="备注" transform="translate(-113.000000, -475.000000)">
            <g id="Group-16" transform="translate(37.000000, 272.000000)">
                <g id="Group-5" transform="translate(16.000000, 65.000000)">
                    <g id="Group-3">
                        <g id="叉" transform="translate(60.000000, 135.000000)">
                            <g id="Page-1" transform="translate(1.000000, 3.000000)">
                                <path d="M3.52341644,7.84963699 L3.4637726,7.84963699 C3.1347726,7.84963699 2.86560822,7.5804726 2.86560822,7.25152055 L2.86560822,0.598164384 C2.86560822,0.269164384 3.1347726,0 3.4637726,0 L3.52341644,0 C3.85236849,0 4.12153288,0.269164384 4.12153288,0.598164384 L4.12153288,7.2514726 C4.12153288,7.5804726 3.85236849,7.84963699 3.52341644,7.84963699" id="Fill-1" fill="#EB6751"></path>
                                <g id="Group-5" transform="translate(0.000000, 1.616760)">
                                    <mask id="mask-2" fill="white">
                                        <use xlink:href="#path-1"></use>
                                    </mask>
                                    <g id="Clip-4"></g>
                                    <path d="M0.109530822,4.29631233 L0.0797089041,4.2446274 C-0.0848390411,3.95973699 0.0136883562,3.59204521 0.298578767,3.42754521 L6.06058562,0.100867123 C6.34547603,-0.0635849315 6.71316781,0.0349424658 6.87766781,0.319832877 L6.90748973,0.371469863 C7.07194178,0.656360274 6.97346233,1.02405205 6.68852397,1.18855205 L0.926613014,4.51523014 C0.641674658,4.67973014 0.273982877,4.58120274 0.109530822,4.29631233" id="Fill-3" fill="#EB6751" mask="url(#mask-2)"></path>
                                </g>
                                <g id="Group-8" transform="translate(0.000000, 1.616760)">
                                    <mask id="mask-4" fill="white">
                                        <use xlink:href="#path-3"></use>
                                    </mask>
                                    <g id="Clip-7"></g>
                                    <path d="M0.079689726,0.371513014 L0.109511644,0.319828082 C0.274011644,0.0349376712 0.641703425,-0.063589726 0.926593836,0.100862329 L6.68855274,3.42758836 C6.9734911,3.59208836 7.07197055,3.95978014 6.90747055,4.24467055 L6.87764863,4.29630753 C6.71314863,4.58119795 6.34545685,4.67972534 6.06056644,4.51522534 L0.298607534,1.18854726 C0.0137171233,1.02404726 -0.084810274,0.656403425 0.079689726,0.371513014" id="Fill-6" fill="#EB6751" mask="url(#mask-4)"></path>
                                </g>
                            </g>
                        </g>
                    </g>
                </g>
            </g>
        </g>
    </g>
</svg>