<?xml version="1.0" encoding="UTF-8" standalone="no"?>
<svg width="20px" height="20px" viewBox="0 0 20 20" version="1.1" xmlns="http://www.w3.org/2000/svg" xmlns:xlink="http://www.w3.org/1999/xlink">
    <!-- Generator: Sketch 39.1 (31720) - http://www.bohemiancoding.com/sketch -->
    <title>icon－excle</title>
    <desc>Created with Sketch.</desc>
    <defs></defs>
    <g id="任务" stroke="none" stroke-width="1" fill="none" fill-rule="evenodd">
        <g id="状态汇总" transform="translate(-193.000000, -317.000000)">
            <g id="icon-20" transform="translate(72.000000, 317.000000)">
                <g id="excle" transform="translate(121.000000, 0.000000)">
                    <g id="icon－e" transform="translate(2.000000, 2.000000)" fill="#20B897">
                        <path d="M11.8721466,3.11389313 C11.8914198,2.96017099 12.0327328,2.85100458 12.1878718,2.87008244 L13.6643176,3.05167634 C13.8193588,3.0707542 13.9294779,3.21082137 13.9102046,3.36454351 L13.7517191,4.63125496 C13.7324458,4.7849771 13.5911328,4.89414351 13.4360672,4.87504122 L11.9596458,4.69347176 C11.8044824,4.67436947 11.6943634,4.53430229 11.7136366,4.38058015 L11.8721466,3.11389313 Z M11.8705099,5.40519084 L13.3469557,5.58678473 C13.5019969,5.6058626 13.612116,5.74605191 13.5929405,5.89977405 L13.4343573,7.16646107 C13.4151817,7.32018321 13.273771,7.42934962 13.1187053,7.41024733 L11.6422595,7.22867786 C11.4872183,7.2096 11.3770992,7.06941069 11.3962748,6.91578626 L11.554858,5.64900153 C11.5741313,5.49527939 11.715371,5.38611298 11.8705099,5.40519084 Z M14.934742,1.37143206 L10.6565863,0.84519084 L10.6565863,1.24509313 L14.786174,1.75301374 L13.1421802,14.8866931 L10.6565863,14.5809588 L10.6565863,14.9808611 L13.1921832,15.2928 C13.2047634,15.2943145 13.2172702,15.2950962 13.2295817,15.2950962 C13.3789069,15.2950962 13.5082992,15.184684 13.5271084,15.0340153 L15.1957008,1.70347481 C15.2161221,1.54032366 15.0993344,1.39165802 14.934742,1.37143206 Z M11.2585771,4.32456794 L11.4171847,3.05788092 C11.436458,2.90415878 11.3263389,2.76406718 11.1711756,2.74498931 L10.6565863,2.68172214 L10.6565863,4.53325191 L10.9430229,4.56847634 C11.0980885,4.5875542 11.2394015,4.47829008 11.2585771,4.32456794 Z M10.941313,6.85977405 L11.0997985,5.59308702 C11.1190962,5.43936489 11.0089771,5.29929771 10.8539115,5.28019542 L10.6565863,5.25586565 L10.6565863,7.10128855 C10.7986565,7.10290076 10.9233832,7.00291908 10.941313,6.85977405 Z M12.5474198,10.6353588 C12.7936977,10.6656977 13.0180397,10.4923115 13.048574,10.2482321 L13.2127023,8.9368916 C13.2433099,8.69278779 13.0684092,8.47037557 12.822229,8.44013435 L10.6565863,8.17370382 L10.6565863,10.4028092 L12.5474198,10.6353588 Z M12.1238473,13.8212397 C12.4050565,13.8557802 12.6612519,13.6578687 12.6961832,13.3791511 L12.8445557,12.1932702 C12.879487,11.9145527 12.6797679,11.6605557 12.3986565,11.6259176 L10.6565863,11.4116885 L10.6565863,13.6407939 L12.1238473,13.8212397 Z" id="Combined-Shape"></path>
                        <path d="M10.2806229,0.0020519084 L0.375963359,0.0020519084 C0.168329771,0.0020519084 0,0.170381679 0,0.378015267 L0,15.6240855 C0,15.8317191 0.168329771,15.9999511 0.375963359,15.9999511 L10.2806229,15.9999511 C10.4882565,15.9999511 10.6565863,15.8317191 10.6565863,15.6240855 L10.6565863,0.378015267 C10.6565863,0.170381679 10.4882565,0.0020519084 10.2806229,0.0020519084 L10.2806229,0.0020519084 Z M7.24790229,10.2827725 L6.33121221,10.2827725 C6.30123969,10.2827725 6.27366107,10.2666504 6.25934656,10.2406107 L5.4326229,8.7397374 C5.40497099,8.68946565 5.33996947,8.69041832 5.30352366,8.73038168 C5.29971298,8.73468092 5.29284885,8.73297099 5.28969771,8.7382229 L4.41888244,10.2421252 C4.40429924,10.2673099 4.37718473,10.2827725 4.34789618,10.2827725 L3.40868397,10.2827725 C3.34485496,10.2827725 3.30552672,10.2136916 3.3388458,10.1597802 L4.65343511,8.02667481 C4.6688,8.00166107 4.66936183,7.97027176 4.65477863,7.94479389 L3.45008855,5.84002443 C3.41918779,5.78611298 3.45858931,5.71923053 3.52127023,5.71923053 L4.41727023,5.71923053 C4.44731603,5.71923053 4.47499237,5.73554809 4.48930687,5.7616855 L5.2896,7.22618626 C5.32069618,7.28315115 5.40352977,7.28278473 5.43406412,7.22542901 L6.21239695,5.76254046 C6.22661374,5.73593893 6.2544855,5.71923053 6.28482443,5.71923053 L7.17806412,5.71923053 C7.24123359,5.71923053 7.28063511,5.78706565 7.24875725,5.8409771 L6.02376794,7.91521221 C6.00886718,7.94059237 6.00886718,7.97200611 6.02403664,7.99719084 L7.31832672,10.1607328 C7.35057099,10.2146443 7.31126718,10.2827725 7.24790229,10.2827725 L7.24790229,10.2827725 Z" id="Fill-8"></path>
                    </g>
                    <rect id="Rectangle-751" x="0" y="0" width="20" height="20"></rect>
                </g>
            </g>
        </g>
    </g>
</svg>