<?xml version="1.0" encoding="UTF-8" standalone="no"?>
<svg width="16px" height="16px" viewBox="0 0 16 16" version="1.1" xmlns="http://www.w3.org/2000/svg" xmlns:xlink="http://www.w3.org/1999/xlink">
    <!-- Generator: Sketch 41.1 (35376) - http://www.bohemiancoding.com/sketch -->
    <title>icon_chuangjianof</title>
    <desc>Created with Sketch.</desc>
    <defs></defs>
    <g id="icon" stroke="none" stroke-width="1" fill="none" fill-rule="evenodd">
        <g id="备注" transform="translate(-166.000000, -364.000000)" fill="#59697A">
            <g id="Group-16" transform="translate(37.000000, 272.000000)">
                <g id="icon操作" transform="translate(129.000000, 65.000000)">
                    <g id="创建offer" transform="translate(1.000000, 27.000000)">
                        <path d="M1.82346667,1.27108571 L8.46270476,1.27108571 C8.68213333,1.27108571 8.8848,1.34499048 9.04632381,1.46918095 C8.83070476,1.70765714 8.65318095,1.98118095 8.52289524,2.27908571 L8.46270476,2.2135619 L1.82346667,2.2135619 C1.23984762,2.2135619 0.957180952,2.53889524 0.951847619,3.10346667 L0.951847619,13.9659429 L0.960228571,14.0398476 C1.05318095,14.7659429 1.46841905,14.9472762 1.9888,14.9495619 L11.0539429,14.9495619 C11.7122286,14.908419 12.0596571,14.605181 12.0954667,14.0398476 L12.0985143,13.9659429 L12.0985143,6.39641905 C12.4322286,6.30346667 12.7423238,6.15489524 13.0188952,5.96060952 C13.037181,6.03375238 13.0455619,6.10918095 13.0455619,6.18384762 L13.0501333,6.18384762 L13.0501333,13.9659429 C13.0501333,14.0040381 13.0478476,14.0413714 13.0432762,14.0787048 L13.0425143,14.0985143 L13.0432762,14.0985143 C13.0089905,14.6387048 12.8063238,15.0707048 12.4360381,15.3945143 C12.0985143,15.6893714 11.6573714,15.8547048 11.1133714,15.8882286 C11.0935619,15.8897524 11.0737524,15.8897524 11.0539429,15.8905143 L11.0539429,15.8920381 L1.9888,15.8920381 C1.95299048,15.8920381 1.91794286,15.8897524 1.88289524,15.8859429 C1.46841905,15.8707048 1.07908571,15.7708952 0.737752381,15.5133714 C0.361371429,15.228419 0.10232381,14.8009905 0.0192761905,14.157181 L0.017752381,14.1427048 L0.0154666667,14.1427048 L0.00708571429,14.0688 C0.00327619048,14.0337524 0.00175238095,13.9994667 0.00175238095,13.9659429 L0.000228571429,13.9659429 L0.000228571429,3.10346667 C0.000228571429,3.06460952 0.00251428571,3.02727619 0.00708571429,2.98994286 C0.0314666667,2.50232381 0.192990476,2.09546667 0.497752381,1.78460952 C0.824609524,1.45013333 1.26651429,1.27108571 1.82346667,1.27108571 L1.82346667,1.27108571 Z" id="Fill-1"></path>
                        <path d="M3.25965714,12.6063238 L3.37851429,12.6063238 L3.25965714,12.6063238 Z" id="Fill-3"></path>
                        <path d="M3.25965714,12.6063238 L3.25965714,12.6063238 C3.27641905,12.6307048 3.29775238,12.6703238 3.31908571,12.7160381 C3.34041905,12.6703238 3.36099048,12.6307048 3.37851429,12.6063238 L3.37851429,12.6063238 C3.36175238,12.5819429 3.34041905,12.5423238 3.31908571,12.4966095 C3.29775238,12.5423238 3.27641905,12.5819429 3.25965714,12.6063238" id="Fill-5"></path>
                        <path d="M3.31900952,11.1910857 C3.34034286,11.1453714 3.36167619,11.1057524 3.3784381,11.0813714 L3.25958095,11.0813714 C3.27634286,11.1057524 3.29767619,11.1453714 3.31900952,11.1910857" id="Fill-7"></path>
                        <path d="M3.25973333,11.081219 L3.37859048,11.081219 C3.36106667,11.0568381 3.34049524,11.017219 3.3191619,10.9715048 C3.29782857,11.017219 3.27649524,11.0560762 3.25973333,11.081219 L3.25973333,11.081219 L3.25973333,11.081219 Z" id="Fill-9"></path>
                        <path d="M3.09790476,6.36137143 L6.48457143,6.36137143 L6.48457143,4.73775238 L3.09790476,4.73775238 L3.09790476,6.36137143 Z M2.78095238,4.10994286 L6.80228571,4.10994286 C6.9767619,4.10994286 7.1192381,4.25013333 7.1192381,4.42384762 L7.1192381,6.67527619 C7.1192381,6.84899048 6.9767619,6.98994286 6.80228571,6.98994286 L2.78095238,6.98994286 C2.60571429,6.98994286 2.464,6.84899048 2.464,6.67527619 L2.464,4.42384762 C2.464,4.25013333 2.60571429,4.10994286 2.78095238,4.10994286 L2.78095238,4.10994286 Z" id="Fill-11"></path>
                        <path d="M2.78102857,12.9204571 C2.60579048,12.9204571 2.46407619,12.7795048 2.46407619,12.6065524 C2.46407619,12.4328381 2.60579048,12.2926476 2.78102857,12.2926476 L3.8568381,12.2926476 C4.03207619,12.2926476 4.17455238,12.4328381 4.17455238,12.6065524 C4.17455238,12.7795048 4.03207619,12.9204571 3.8568381,12.9204571 L2.78102857,12.9204571 Z" id="Fill-13"></path>
                        <path d="M5.00015238,12.9204571 C4.82491429,12.9204571 4.6832,12.7795048 4.6832,12.6065524 C4.6832,12.4328381 4.82491429,12.2926476 5.00015238,12.2926476 L10.323581,12.2926476 C10.498819,12.2926476 10.6405333,12.4328381 10.6405333,12.6065524 C10.6405333,12.7795048 10.498819,12.9204571 10.323581,12.9204571 L5.00015238,12.9204571 Z" id="Fill-14"></path>
                        <path d="M2.78102857,11.3953524 C2.60579048,11.3953524 2.46407619,11.2544 2.46407619,11.0814476 C2.46407619,10.9077333 2.60579048,10.7675429 2.78102857,10.7675429 L3.8568381,10.7675429 C4.03207619,10.7675429 4.17455238,10.9077333 4.17455238,11.0814476 C4.17455238,11.2544 4.03207619,11.3953524 3.8568381,11.3953524 L2.78102857,11.3953524 Z" id="Fill-15"></path>
                        <path d="M5.00015238,11.3953524 C4.82491429,11.3953524 4.6832,11.2544 4.6832,11.0814476 C4.6832,10.9077333 4.82491429,10.7675429 5.00015238,10.7675429 L10.323581,10.7675429 C10.498819,10.7675429 10.6405333,10.9077333 10.6405333,11.0814476 C10.6405333,11.2544 10.498819,11.3953524 10.323581,11.3953524 L5.00015238,11.3953524 Z" id="Fill-16"></path>
                        <path d="M2.78102857,9.87009524 C2.60579048,9.87009524 2.46407619,9.72914286 2.46407619,9.55619048 C2.46407619,9.38247619 2.60579048,9.24228571 2.78102857,9.24228571 L3.8568381,9.24228571 C4.03207619,9.24228571 4.17455238,9.38247619 4.17455238,9.55619048 C4.17455238,9.72914286 4.03207619,9.87009524 3.8568381,9.87009524 L2.78102857,9.87009524 Z" id="Fill-17"></path>
                        <path d="M5.00015238,9.87009524 C4.82491429,9.87009524 4.6832,9.72914286 4.6832,9.55619048 C4.6832,9.38247619 4.82491429,9.24228571 5.00015238,9.24228571 L10.323581,9.24228571 C10.498819,9.24228571 10.6405333,9.38247619 10.6405333,9.55619048 C10.6405333,9.72914286 10.498819,9.87009524 10.323581,9.87009524 L5.00015238,9.87009524 Z" id="Fill-18"></path>
                        <path d="M13.0850286,1.6864 C12.6256,1.22697143 11.9894095,0.942019048 11.2876952,0.942019048 C10.585981,0.942019048 9.94979048,1.22697143 9.4903619,1.6864 C9.03017143,2.14659048 8.74598095,2.78354286 8.74598095,3.48906667 C8.74598095,4.19382857 9.03017143,4.83154286 9.4903619,5.29173333 C9.94979048,5.7511619 10.585981,6.03535238 11.2876952,6.03535238 C11.9894095,6.03535238 12.6256,5.7511619 13.0850286,5.29173333 C13.545219,4.83154286 13.8294095,4.19382857 13.8294095,3.48906667 C13.8294095,2.78354286 13.545219,2.14659048 13.0850286,1.6864 M11.2876952,0.000304761905 C12.2522667,0.000304761905 13.1254095,0.391161905 13.7577905,1.02354286 C14.3901714,1.65592381 14.7810286,2.52754286 14.7810286,3.48906667 C14.7810286,4.44982857 14.3901714,5.32144762 13.7577905,5.95382857 C13.1254095,6.58620952 12.2522667,6.97782857 11.2876952,6.97782857 C10.3231238,6.97782857 9.44998095,6.58620952 8.8176,5.95382857 C8.18521905,5.32144762 7.7943619,4.44982857 7.7943619,3.48906667 C7.7943619,2.52754286 8.18521905,1.65592381 8.8176,1.02354286 C9.44998095,0.391161905 10.3231238,0.000304761905 11.2876952,0.000304761905" id="Fill-19"></path>
                        <path d="M9.50247619,3.80289524 C9.3272381,3.80289524 9.18552381,3.66194286 9.18552381,3.48899048 C9.18552381,3.31527619 9.3272381,3.17508571 9.50247619,3.17508571 L10.9706667,3.17508571 L10.9706667,1.93699048 C10.9706667,1.7640381 11.112381,1.62308571 11.287619,1.62308571 C11.4628571,1.62308571 11.6053333,1.7640381 11.6053333,1.93699048 L11.6053333,3.17508571 L13.0727619,3.17508571 C13.248,3.17508571 13.3904762,3.31527619 13.3904762,3.48899048 C13.3904762,3.66194286 13.248,3.80289524 13.0727619,3.80289524 L11.6053333,3.80289524 L11.6053333,5.04022857 C11.6053333,5.21394286 11.4628571,5.35489524 11.287619,5.35489524 C11.112381,5.35489524 10.9706667,5.21394286 10.9706667,5.04022857 L10.9706667,3.80289524 L9.50247619,3.80289524 L9.50247619,3.80289524 Z" id="Fill-20"></path>
                    </g>
                </g>
            </g>
        </g>
    </g>
</svg>