<?xml version="1.0" encoding="UTF-8" standalone="no"?>
<svg width="30px" height="30px" viewBox="0 0 30 30" version="1.1" xmlns="http://www.w3.org/2000/svg" xmlns:xlink="http://www.w3.org/1999/xlink">
    <!-- Generator: Sketch 41.1 (35376) - http://www.bohemiancoding.com/sketch -->
    <title>icon_tianjiazhixingren</title>
    <desc>Created with Sketch.</desc>
    <defs>
        <path d="M15,30 C23.2842712,30 30,23.2842712 30,15 C30,6.71572875 23.2842712,0 15,0 C6.71572875,0 0,6.71572875 0,15 C0,23.2842712 6.71572875,30 15,30 Z" id="path-1"></path>
        <mask id="mask-2" maskContentUnits="userSpaceOnUse" maskUnits="objectBoundingBox" x="0" y="0" width="30" height="30" fill="white">
            <use xlink:href="#path-1"></use>
        </mask>
    </defs>
    <g id="icon" stroke="none" stroke-width="1" fill="none" fill-rule="evenodd">
        <g id="备注" transform="translate(-190.000000, -413.000000)">
            <g id="Group-16" transform="translate(37.000000, 272.000000)">
                <g id="icon－xinjian" transform="translate(153.000000, 141.000000)">
                    <use id="Oval-36" stroke="#C6C6C6" mask="url(#mask-2)" stroke-width="2" xlink:href="#path-1"></use>
                    <path d="M15.5384471,15.5382653 L20.5385241,15.5382653 C20.8154233,15.5382653 21,15.3383284 21,15.0382653 C21,14.7382023 20.8154233,14.5382653 20.5385241,14.5382653 L15.5384471,14.5382653 L15.5384471,9.46152924 C15.5384471,9.1845535 15.3384953,9 15.0384841,9 C14.7384174,9 14.5384471,9.18462197 14.5384471,9.46152924 L14.5384471,14.5382653 L9.46154439,14.5382653 C9.18455955,14.5382653 9,14.7382023 9,15.0382653 C9,15.3383284 9.18462803,15.5382653 9.46154439,15.5382653 L14.5384471,15.5382653 L14.5384471,20.5381284 C14.5384471,20.8150357 14.7384174,20.9995892 15.0384841,20.9995892 C15.3384953,20.9995892 15.5384471,20.8150357 15.5384471,20.5381284 L15.5384471,15.5382653 Z" id="添加文件" fill="#C6C6C6"></path>
                </g>
            </g>
        </g>
    </g>
</svg>