<?xml version="1.0" encoding="UTF-8" standalone="no"?>
<svg width="20px" height="20px" viewBox="0 0 20 20" version="1.1" xmlns="http://www.w3.org/2000/svg" xmlns:xlink="http://www.w3.org/1999/xlink">
    <!-- Generator: Sketch 41.1 (35376) - http://www.bohemiancoding.com/sketch -->
    <title>icon_bianji_def</title>
    <desc>Created with Sketch.</desc>
    <defs></defs>
    <g id="icon" stroke="none" stroke-width="1" fill="none" fill-rule="evenodd">
        <g id="备注" transform="translate(-433.000000, -337.000000)" fill="#D8D8D8">
            <g id="Group-16" transform="translate(37.000000, 272.000000)">
                <g id="icon操作" transform="translate(129.000000, 65.000000)">
                    <path d="M283.860269,6.1538379 L282.922223,7.09274258 L279.904683,4.07777718 L280.846162,3.13801427 C280.968889,3.01442901 281.145685,2.94405407 281.331063,2.94405407 C281.517299,2.94405407 281.694953,3.01442901 281.81768,3.13801427 L283.861128,5.18146221 C283.991579,5.31191332 284.062812,5.48441774 284.062812,5.66722094 C284.062812,5.85088237 283.991579,6.02338679 283.860269,6.1538379 L283.860269,6.1538379 Z M274.66175,15.3532157 L271.659658,12.3511237 L278.725473,5.258703 L281.741297,8.27281017 L274.66175,15.3532157 Z M271.790967,16.2818216 L270.71732,15.2073164 L271.240841,13.2565574 L273.743443,15.7591589 L271.790967,16.2818216 Z M284.522824,4.51976613 L282.480234,2.47631819 C282.172987,2.1690715 281.765327,2 281.331921,2 C280.897656,2 280.489996,2.1690715 280.18275,2.47545996 L270.603175,12.0859304 L270.578287,12.1099608 L269,17.9991418 L274.92866,16.4105562 L284.522824,6.81639221 C284.83007,6.50914552 285,6.10062758 285,5.66722094 C285,5.2338143 284.830928,4.82615459 284.522824,4.51976613 L284.522824,4.51976613 Z" id="Fill-1"></path>
                </g>
            </g>
        </g>
    </g>
</svg>