<?xml version="1.0" encoding="UTF-8" standalone="no"?>
<svg width="16px" height="12px" viewBox="0 0 16 12" version="1.1" xmlns="http://www.w3.org/2000/svg" xmlns:xlink="http://www.w3.org/1999/xlink">
    <!-- Generator: Sketch 41.1 (35376) - http://www.bohemiancoding.com/sketch -->
    <title>icon_shenfenzheng</title>
    <desc>Created with Sketch.</desc>
    <defs></defs>
    <g id="icon" stroke="none" stroke-width="1" fill="none" fill-rule="evenodd" opacity="0.300000012">
        <g id="备注" transform="translate(-110.000000, -736.000000)" fill="#000000">
            <g id="Group-16" transform="translate(37.000000, 272.000000)">
                <g id="Page-1" transform="translate(73.000000, 404.000000)">
                    <g id="icon_shenfenzheng" transform="translate(0.000000, 60.000000)">
                        <path d="M14,0 L2,0 C0.9,0 0,0.9 0,2 L0,10 C0,11.1 0.9,12 2,12 L14,12 C15.1,12 16,11.1 16,10 L16,2 C16,0.9 15.1,0 14,0 M14,1 C14.6,1 15,1.4 15,2 L15,10 C15,10.6 14.6,11 14,11 L2,11 C1.4,11 1,10.6 1,10 L1,2 C1,1.4 1.4,1 2,1 L14,1" id="Fill-10"></path>
                        <path d="M13.5,4 L9.5,4 C9.2,4 9,3.8 9,3.5 C9,3.2 9.2,3 9.5,3 L13.5,3 C13.8,3 14,3.2 14,3.5 C14,3.8 13.8,4 13.5,4" id="Fill-11"></path>
                        <path d="M13.5,7 L9.5,7 C9.2,7 9,6.8 9,6.5 C9,6.2 9.2,6 9.5,6 L13.5,6 C13.8,6 14,6.2 14,6.5 C14,6.8 13.8,7 13.5,7" id="Fill-12"></path>
                        <path d="M13.5,10 L2.5,10 C2.2,10 2,9.8 2,9.5 C2,9.2 2.2,9 2.5,9 L13.5,9 C13.8,9 14,9.2 14,9.5 C14,9.8 13.8,10 13.5,10" id="Fill-13"></path>
                        <path d="M4.5,2 C3.4,2 2.5,2.9 2.5,4 C2.5,5.1 3.4,6 4.5,6 C5.6,6 6.5,5.1 6.5,4 C6.5,2.9 5.6,2 4.5,2 M4.5,3 C5.1,3 5.5,3.4 5.5,4 C5.5,4.6 5.1,5 4.5,5 C3.9,5 3.5,4.6 3.5,4 C3.5,3.4 3.9,3 4.5,3" id="Fill-14"></path>
                        <path d="M4.4,5 C2.4,5 1.7,6.7 1.5,7.5 C1.5,7.8 1.6,8 1.9,8 L7,8 C7.2,8 7.4,7.8 7.4,7.5 C7.2,6.7 6.6,5 4.4,5 M4.4,6 C5.2,6 5.8,6.3 6.1,7 L2.8,7 C3.1,6.3 3.7,6 4.4,6" id="Fill-15"></path>
                    </g>
                </g>
            </g>
        </g>
    </g>
</svg>