<?xml version="1.0" encoding="UTF-8" standalone="no"?>
<svg width="20px" height="20px" viewBox="0 0 20 20" version="1.1" xmlns="http://www.w3.org/2000/svg" xmlns:xlink="http://www.w3.org/1999/xlink">
    <!-- Generator: Sketch 41.1 (35376) - http://www.bohemiancoding.com/sketch -->
    <title>icon－xiazai－hov</title>
    <desc>Created with Sketch.</desc>
    <defs></defs>
    <g id="icon" stroke="none" stroke-width="1" fill="none" fill-rule="evenodd">
        <g id="备注" transform="translate(-472.000000, -362.000000)">
            <g id="Group-16" transform="translate(37.000000, 272.000000)">
                <g id="下载" transform="translate(435.000000, 63.000000)">
                    <g id="icon－下载" transform="translate(1.000000, 29.000000)" fill="#546576">
                        <path d="M13.4157741,3.47523077 C12.6308536,1.34841026 10.9441255,0.00156410256 8.39641004,0.00156410256 C5.15447699,0.00156410256 2.88645188,2.46010256 2.69138912,5.66774359 C1.12822594,6.17835897 0,7.80684615 0,9.65151282 C0,11.9096154 1.7378159,13.8170769 3.79461088,13.8170769 L4.29494561,13.8170769 C4.60561506,13.8170769 4.85753975,13.5600513 4.85753975,13.2424615 C4.85753975,12.9248462 4.60561506,12.6678205 4.29494561,12.6678205 L3.79461088,12.6678205 C2.34768201,12.6678205 1.10764017,11.2867179 1.10764017,9.65151282 C1.10764017,8.20648718 2.09967364,6.90289744 3.34380753,6.6845641 L3.85453556,6.59482051 L3.80894561,6.06787179 L3.80482845,6.06115385 C3.80482845,3.26197436 5.60831799,1.15089744 8.39641004,1.15089744 C10.6312218,1.15089744 11.8866276,2.27551282 12.4673724,4.1935641 L12.5874979,4.58910256 L12.9931883,4.59812821 C15.0829707,4.643 16.9158828,6.37487179 16.9158828,8.52689744 C16.9158828,10.4854359 15.645364,12.6678205 13.7209456,12.6678205 L13.5605021,12.6678205 C13.2498326,12.6678205 12.9979079,12.9248462 12.9979079,13.2424615 C12.9979079,13.5600513 13.2498326,13.8170769 13.5605021,13.8170769 L13.5605021,13.815359 C16.3735983,13.739641 17.9950042,10.994359 17.9950042,8.52689744 C17.9950042,5.87425641 15.9598494,3.75466667 13.4157741,3.47523077 L13.4157741,3.47523077 Z" id="Fill-1"></path>
                        <path d="M8.43268619,8.34110256 L8.43268619,14.1316667 L7.23512134,12.7676923 C7.08500706,12.6072899 6.76916137,12.5538614 6.57155522,12.7317437 C6.37394907,12.909626 6.36705439,13.251359 6.524159,13.4191282 L8.5548954,15.7132051 C8.5576318,15.716 8.7032636,15.8748718 8.7032636,15.8748718 C8.78239331,15.959 8.88564854,16.0005641 8.98950628,15.9999744 C9.09276151,16.0005641 9.19661925,15.959 9.27466946,15.8748718 L9.41696234,15.7228205 C9.41972385,15.7199231 11.505841,13.3832821 11.505841,13.3832821 C11.663046,13.2152051 11.7105153,12.9177983 11.4696993,12.6969231 C11.2288834,12.476048 10.9525607,12.5639744 10.7954812,12.7317436 L9.55789958,14.1257692 L9.55789958,8.34110256 C9.55789958,8.02379487 9.3059749,7.76648718 8.99528033,7.76648718 C8.68463598,7.76648718 8.43268619,8.02379487 8.43268619,8.34110256 Z" id="Fill-2"></path>
                    </g>
                    <rect id="Rectangle-754" x="0" y="27" width="20" height="20"></rect>
                </g>
            </g>
        </g>
    </g>
</svg>