<?xml version="1.0" encoding="UTF-8" standalone="no"?>
<svg width="14px" height="14px" viewBox="0 0 14 14" version="1.1" xmlns="http://www.w3.org/2000/svg" xmlns:xlink="http://www.w3.org/1999/xlink">
    <!-- Generator: Sketch 41.1 (35376) - http://www.bohemiancoding.com/sketch -->
    <title>icon－xuanze－xuzhong</title>
    <desc>Created with Sketch.</desc>
    <defs>
        <path d="M7,14 C10.8659932,14 14,10.8659932 14,7 C14,3.13400675 10.8659932,0 7,0 C3.13400675,0 0,3.13400675 0,7 C0,10.8659932 3.13400675,14 7,14 Z" id="path-1"></path>
        <mask id="mask-2" maskContentUnits="userSpaceOnUse" maskUnits="objectBoundingBox" x="0" y="0" width="14" height="14" fill="white">
            <use xlink:href="#path-1"></use>
        </mask>
        <path d="M7,14 C10.8659932,14 14,10.8659932 14,7 C14,3.13400675 10.8659932,0 7,0 C3.13400675,0 0,3.13400675 0,7 C0,10.8659932 3.13400675,14 7,14 Z" id="path-3"></path>
        <mask id="mask-4" maskContentUnits="userSpaceOnUse" maskUnits="objectBoundingBox" x="0" y="0" width="14" height="14" fill="white">
            <use xlink:href="#path-3"></use>
        </mask>
        <path d="M7,14 C10.8659932,14 14,10.8659932 14,7 C14,3.13400675 10.8659932,0 7,0 C3.13400675,0 0,3.13400675 0,7 C0,10.8659932 3.13400675,14 7,14 Z" id="path-5"></path>
        <mask id="mask-6" maskContentUnits="userSpaceOnUse" maskUnits="objectBoundingBox" x="0" y="0" width="14" height="14" fill="white">
            <use xlink:href="#path-5"></use>
        </mask>
    </defs>
    <g id="icon" stroke="none" stroke-width="1" fill="none" fill-rule="evenodd">
        <g id="备注" transform="translate(-167.000000, -98.000000)">
            <g id="Group-2" transform="translate(45.000000, 65.000000)">
                <g id="Group-11" transform="translate(0.000000, 33.000000)">
                    <g id="单选" transform="translate(122.000000, 0.000000)">
                        <g id="Group-3">
                            <use id="Oval" stroke="#B0BDCA" mask="url(#mask-2)" stroke-width="2" xlink:href="#path-1"></use>
                            <path d="M7,11 C9.209139,11 11,9.209139 11,7 C11,4.790861 9.209139,3 7,3 C4.790861,3 3,4.790861 3,7 C3,9.209139 4.790861,11 7,11 Z" id="Oval" fill="#B0BDCA"></path>
                            <rect id="Rectangle-6" x="0" y="0" width="14" height="14"></rect>
                        </g>
                    </g>
                    <g id="单选" transform="translate(122.000000, 0.000000)">
                        <g id="Group-3">
                            <use id="Oval" stroke="#B0BDCA" mask="url(#mask-4)" stroke-width="2" xlink:href="#path-3"></use>
                            <path d="M7,11 C9.209139,11 11,9.209139 11,7 C11,4.790861 9.209139,3 7,3 C4.790861,3 3,4.790861 3,7 C3,9.209139 4.790861,11 7,11 Z" id="Oval" fill="#B0BDCA"></path>
                            <rect id="Rectangle-6" x="0" y="0" width="14" height="14"></rect>
                        </g>
                        <g id="Group-3">
                            <use id="Oval" stroke="#B0BDCA" mask="url(#mask-6)" stroke-width="2" xlink:href="#path-5"></use>
                            <path d="M7,11 C9.209139,11 11,9.209139 11,7 C11,4.790861 9.209139,3 7,3 C4.790861,3 3,4.790861 3,7 C3,9.209139 4.790861,11 7,11 Z" id="Oval" fill="#B0BDCA"></path>
                            <rect id="Rectangle-6" x="0" y="0" width="14" height="14"></rect>
                        </g>
                    </g>
                </g>
            </g>
        </g>
    </g>
</svg>