<?xml version="1.0" encoding="UTF-8" standalone="no"?>
<svg width="20px" height="20px" viewBox="0 0 20 20" version="1.1" xmlns="http://www.w3.org/2000/svg" xmlns:xlink="http://www.w3.org/1999/xlink">
    <!-- Generator: Sketch 39.1 (31720) - http://www.bohemiancoding.com/sketch -->
    <title>icon－ppt</title>
    <desc>Created with Sketch.</desc>
    <defs></defs>
    <g id="任务" stroke="none" stroke-width="1" fill="none" fill-rule="evenodd">
        <g id="状态汇总" transform="translate(-313.000000, -317.000000)">
            <g id="icon-20" transform="translate(72.000000, 317.000000)">
                <g id="ppt" transform="translate(241.000000, 0.000000)">
                    <g id="iconfont-fujianppt" transform="translate(2.000000, 2.000000)" fill="#EB6751">
                        <path d="M14.7441559,1.37143206 L10.5205949,0.84519084 L10.5205949,1.24509313 L14.5974839,1.75301374 L12.9744695,14.8866931 L10.5205949,14.5809588 L10.5205949,14.9808611 L13.0239309,15.2928 C13.036254,15.2943145 13.0486013,15.2950962 13.0607556,15.2950962 C13.2081752,15.2950962 13.3359164,15.184684 13.3544855,15.0340153 L15.0017846,1.70347481 C15.0219453,1.54032366 14.9066479,1.39165802 14.7441559,1.37143206 L14.7441559,1.37143206 Z" id="Fill-1"></path>
                        <path d="M12.8033923,10.8852519 L12.8515273,10.4951939 C12.8717846,10.3320183 12.7563907,10.1833527 12.5938023,10.163029 L10.5205949,9.90473282 L10.5205949,10.9009099 L12.4726447,11.1440366 C12.6351608,11.1643603 12.7832315,11.0484275 12.8033923,10.8852519 L12.8033923,10.8852519 Z" id="Fill-2"></path>
                        <path d="M12.5740997,13.0559756 L12.6119855,12.7496794 C12.6350643,12.5633221 12.5032717,12.3935511 12.3176768,12.3704672 L10.5205949,12.146516 L10.5205949,13.1426931 L12.1964469,13.3514748 C12.3819453,13.3745832 12.5511174,13.2423084 12.5740997,13.0559756 L12.5740997,13.0559756 Z" id="Fill-3"></path>
                        <path d="M12.7288746,6.32600916 L10.5215354,6.05100458 L10.7953698,3.83450382 C10.7028617,3.82304733 10.6114148,3.81923664 10.5205949,3.81923664 L10.5205949,8.28277252 C11.6282315,8.28440916 12.5889791,7.45788092 12.7288746,6.32600916 L12.7288746,6.32600916 Z" id="Fill-4"></path>
                        <path d="M11.139791,3.56501985 L10.8659325,5.78144733 L13.0732717,6.05645191 C13.2244775,4.83239084 12.3588424,3.71693435 11.139791,3.56501985 L11.139791,3.56501985 Z" id="Fill-5"></path>
                        <path d="M5.55236334,6.16874504 C5.43839228,6.1240916 5.31197749,6.0903084 5.16595659,6.07372214 C5.07928457,6.06387786 4.98846463,6.05767328 4.89050643,6.05767328 L4.41856109,6.05767328 C4.36948553,6.05767328 4.32962219,6.08994198 4.32962219,6.12973435 L4.32962219,8.23526107 C4.32962219,8.27505344 4.36948553,8.30729771 4.41856109,8.30729771 L4.86496785,8.30729771 C4.87391479,8.30749313 4.8812701,8.30614962 4.89002412,8.30624733 C5.03840836,8.3072 5.1701045,8.29374046 5.29246785,8.27229313 C5.88453376,8.16798779 6.17901125,7.80443359 6.16524116,7.1721771 C6.16524116,6.65910229 5.95762862,6.32752366 5.55236334,6.16874504 L5.55236334,6.16874504 Z" id="Fill-6"></path>
                        <path d="M10.129561,0.0020519084 L0.37043901,0.0020519084 C0.165856359,0.0020519084 0,0.170381679 0,0.378015267 L0,15.6240855 C0,15.8317191 0.165856359,15.9999511 0.37043901,15.9999511 L10.129561,15.9999511 C10.3341436,15.9999511 10.5,15.8317191 10.5,15.6240855 L10.5,0.378015267 C10.5,0.170381679 10.3341436,0.0020519084 10.129561,0.0020519084 L10.129561,0.0020519084 Z M5.21498026,8.81656183 C5.17014056,8.81770992 4.81671801,8.82323053 4.81671801,8.82323053 L4.40991143,8.82323053 C4.36093193,8.82323053 4.32114663,8.85549924 4.32114663,8.89536489 L4.32114663,10.4091115 C4.32114663,10.4490015 4.28138539,10.4812458 4.23230962,10.4812458 L3.36668432,10.4812458 C3.31770482,10.4812458 3.27784731,10.4490015 3.27784731,10.4091115 L3.27784731,5.59318473 C3.27784731,5.55329466 3.31770482,5.52105038 3.36668432,5.52105038 L5.0844806,5.52105038 C5.13384519,5.52056183 5.49523443,5.53363053 5.6182247,5.54699237 C6.70046693,5.66512366 7.23635313,6.20567939 7.22188794,7.1721771 C7.22188794,8.23726412 6.54861847,8.78182595 5.21498026,8.81656183 L5.21498026,8.81656183 Z" id="Fill-7"></path>
                    </g>
                    <rect id="Rectangle-274" x="0" y="0" width="20" height="20"></rect>
                </g>
            </g>
        </g>
    </g>
</svg>