<?xml version="1.0" encoding="UTF-8" standalone="no"?>
<svg width="20px" height="21px" viewBox="0 0 20 21" version="1.1" xmlns="http://www.w3.org/2000/svg" xmlns:xlink="http://www.w3.org/1999/xlink">
    <!-- Generator: Sketch 41.1 (35376) - http://www.bohemiancoding.com/sketch -->
    <title>icon－shuchu－daochu－hoved</title>
    <desc>Created with Sketch.</desc>
    <defs></defs>
    <g id="icon" stroke="none" stroke-width="1" fill="none" fill-rule="evenodd">
        <g id="备注" transform="translate(-137.000000, -601.000000)" fill="#546576">
            <g id="Group-16" transform="translate(37.000000, 272.000000)">
                <g id="Group-16-Copy" transform="translate(13.000000, 255.000000)">
                    <g id="Group-5" transform="translate(0.000000, 47.000000)">
                        <g id="Group-3">
                            <g id="shanchu" transform="translate(56.000000, 0.000000)">
                                <g id="icon">
                                    <path d="M47.3632213,39.9090909 C47.5383977,39.9090909 47.6886675,39.9713574 47.8132005,40.0958904 C47.9377335,40.2204234 48,40.369863 48,40.5458697 L48,43.090494 C48,43.6210046 47.8156912,44.0701536 47.4479037,44.4379411 C47.0734745,44.8123703 46.6259859,45 46.1054379,45 L35.909506,45 C35.3889581,45 34.9381486,44.8140307 34.5570776,44.4429224 C34.1859693,44.0618514 34,43.6110419 34,43.090494 L34,40.5458697 C34,40.369863 34.0622665,40.2204234 34.1867995,40.0958904 C34.3113325,39.9713574 34.4616023,39.9090909 34.6367787,39.9090909 C34.8127854,39.9090909 34.962225,39.9713574 35.086758,40.0958904 C35.211291,40.2204234 35.2735575,40.369863 35.2735575,40.5458697 L35.2735575,43.090494 C35.2735575,43.2665006 35.335824,43.4167704 35.460357,43.5413034 C35.58489,43.6650062 35.7343296,43.7272727 35.9103362,43.7272727 L46.1062682,43.7272727 C46.2789539,43.7272727 46.4259029,43.6650062 46.5462848,43.5413034 C46.6674969,43.4167704 46.7281029,43.2665006 46.7281029,43.090494 L46.7281029,40.5458697 C46.7281029,40.369863 46.7903694,40.2204234 46.9149024,40.0958904 C47.0386052,39.9713574 47.1888751,39.9090909 47.3640515,39.9090909 L47.3632213,39.9090909 Z M41.0751349,31.0008302 C41.2544624,31.0008302 41.4047323,31.0622665 41.5276048,31.1843088 L44.7090079,34.3665421 C44.8318804,34.4885845 44.8933167,34.6396845 44.8933167,34.819012 C44.8933167,35.0008302 44.8327107,35.1527605 44.7114985,35.2731424 C44.5911166,35.3943545 44.4391864,35.4549606 44.256538,35.4549606 C44.0780407,35.4549606 43.9269406,35.3935243 43.8040681,35.2714819 L41.7119137,33.173516 L41.7119137,40.5458697 C41.7119137,40.7210461 41.6496472,40.8713159 41.5251142,40.9958489 C41.4005812,41.1203819 41.2511416,41.1826484 41.0751349,41.1826484 C40.8991283,41.1826484 40.7496887,41.1203819 40.6251557,40.9958489 C40.5006227,40.8713159 40.4383562,40.7210461 40.4383562,40.5458697 L40.4383562,33.173516 L38.3462017,35.2714819 C38.2166874,35.3935243 38.0655874,35.4549606 37.8929016,35.4549606 C37.7177252,35.4549606 37.5674554,35.3926941 37.4429224,35.2681611 C37.3192196,35.1444583 37.2569531,34.9941885 37.2569531,34.8181818 C37.2569531,34.6454961 37.3175592,34.4952262 37.4404317,34.3657119 L40.6218348,31.1843088 C40.7447073,31.0614363 40.8958074,31 41.0743047,31 L41.0751349,31.0008302 Z" id="Fill-1"></path>
                                </g>
                            </g>
                        </g>
                    </g>
                </g>
            </g>
        </g>
    </g>
</svg>