<?xml version="1.0" encoding="UTF-8" standalone="no"?>
<svg width="20px" height="20px" viewBox="0 0 20 20" version="1.1" xmlns="http://www.w3.org/2000/svg" xmlns:xlink="http://www.w3.org/1999/xlink">
    <!-- Generator: Sketch 41.1 (35376) - http://www.bohemiancoding.com/sketch -->
    <title>icon－chakan－hov</title>
    <desc>Created with Sketch.</desc>
    <defs>
        <path d="M19.8959487,9.58078073 L19.8959487,9.58078073 C19.9879317,9.70451478 20.02941,9.85308377 20.0240627,9.99890485 C20.02941,10.1447259 19.9879317,10.293269 19.8959487,10.417029 C16.6471312,14.786995 13.2668393,16.9989128 9.84153705,16.9989128 C9.67241085,16.9989128 9.50367711,16.9934429 9.33437921,16.9827105 C8.03626509,16.9000915 6.7396963,16.4945145 5.480583,15.7770489 C4.48782815,15.2114964 3.51633978,14.451801 2.59317318,13.5189609 C1.03088369,11.940438 0.148802861,10.4181437 0.112009634,10.3540343 C0.0481120626,10.2427436 0.0203209116,10.1190096 0.0250304447,9.99799752 C0.0206152574,9.87758171 0.0484064084,9.75444391 0.112009634,9.64367174 C0.148802861,9.57966601 1.03088369,8.0573458 2.59317318,6.47874514 C3.51633978,5.5459828 4.48782815,4.78620962 5.480583,4.22063122 C6.7396963,3.50326929 8.03626509,3.09771819 9.33437921,3.01507328 C12.9328304,2.78590736 16.4866392,4.99499947 19.8959487,9.58078073 L19.8959487,9.58078073 Z" id="path-1"></path>
        <mask id="mask-2" maskContentUnits="userSpaceOnUse" maskUnits="objectBoundingBox" x="0" y="0" width="20" height="14" fill="white">
            <use xlink:href="#path-1"></use>
        </mask>
        <path d="M10,13 L10,13 C8.34314575,13 7,11.6568542 7,10 C7,8.34314575 8.34314575,7 10,7 C11.6568542,7 13,8.34314575 13,10 C13,11.6568542 11.6568542,13 10,13 L10,13 Z" id="path-3"></path>
        <mask id="mask-4" maskContentUnits="userSpaceOnUse" maskUnits="objectBoundingBox" x="0" y="0" width="6" height="6" fill="white">
            <use xlink:href="#path-3"></use>
        </mask>
    </defs>
    <g id="icon" stroke="none" stroke-width="1" fill="none" fill-rule="evenodd">
        <g id="备注" transform="translate(-226.000000, -602.000000)">
            <g id="Group-16" transform="translate(37.000000, 272.000000)">
                <g id="Group-16-Copy" transform="translate(13.000000, 255.000000)">
                    <g id="Group-5" transform="translate(0.000000, 47.000000)">
                        <g id="Group-3">
                            <g id="查看" transform="translate(176.000000, 28.000000)">
                                <use id="Combined-Shape" stroke="#546576" mask="url(#mask-2)" stroke-width="2" xlink:href="#path-1"></use>
                                <use id="Oval-146" stroke="#546576" mask="url(#mask-4)" stroke-width="2" xlink:href="#path-3"></use>
                                <rect id="Rectangle-707" x="0" y="0" width="20" height="20"></rect>
                            </g>
                        </g>
                    </g>
                </g>
            </g>
        </g>
    </g>
</svg>