<?xml version="1.0" encoding="UTF-8" standalone="no"?>
<svg width="20px" height="20px" viewBox="0 0 20 20" version="1.1" xmlns="http://www.w3.org/2000/svg" xmlns:xlink="http://www.w3.org/1999/xlink">
    <!-- Generator: Sketch 39.1 (31720) - http://www.bohemiancoding.com/sketch -->
    <title>icon－word</title>
    <desc>Created with Sketch.</desc>
    <defs></defs>
    <g id="任务" stroke="none" stroke-width="1" fill="none" fill-rule="evenodd">
        <g id="状态汇总" transform="translate(-223.000000, -317.000000)">
            <g id="icon-20" transform="translate(72.000000, 317.000000)">
                <g id="word" transform="translate(151.000000, 0.000000)">
                    <g id="icon－文档" transform="translate(2.000000, 2.000000)" fill="#4990E2">
                        <path d="M14.9407447,1.37143206 L10.6608695,0.84519084 L10.6608695,1.24509313 L14.792117,1.75301374 L13.1474624,14.8866931 L10.6608695,14.5809588 L10.6608695,14.9807634 L13.1975833,15.2927023 C13.2100707,15.2942168 13.2225826,15.2949985 13.234899,15.2949985 C13.3842842,15.2949985 13.5137286,15.184684 13.5325453,15.0340153 L15.2018084,1.7033771 C15.2222379,1.54032366 15.1054032,1.39165802 14.9407447,1.37143206 L14.9407447,1.37143206 Z" id="Fill-1"></path>
                        <path d="M12.6486971,11.7310534 C12.7680977,11.7457588 12.8768437,11.6616794 12.8916283,11.5434748 L12.9026006,11.456342 C12.9174096,11.3380153 12.8326367,11.2302901 12.7133093,11.2156092 L10.6608695,10.9632244 L10.6608695,11.4865832 L12.6486971,11.7310534 L12.6486971,11.7310534 Z" id="Fill-2"></path>
                        <path d="M12.8529685,10.1001527 C12.9722958,10.1147359 13.0811151,10.0307786 13.0958997,9.91245191 L13.1067987,9.82544122 C13.1215833,9.7071145 13.0368103,9.59938931 12.9175074,9.58468397 L10.6608695,9.30721221 L10.6608695,9.83059542 L12.8529685,10.1001527 L12.8529685,10.1001527 Z" id="Fill-3"></path>
                        <path d="M13.0571421,8.46912977 C13.1765672,8.48383511 13.2852887,8.39985344 13.3000977,8.28162443 L13.3110701,8.19441832 C13.3258791,8.07618931 13.2411061,7.96836641 13.1217788,7.9536855 L10.6608695,7.65110229 L10.6608695,8.1744855 L13.0571421,8.46912977 L13.0571421,8.46912977 Z" id="Fill-4"></path>
                        <path d="M13.5043691,6.65062595 L13.5152682,6.56349313 C13.5300527,6.44528855 13.4452797,6.33746565 13.3259524,6.32276031 L10.6608695,5.99509008 L10.6608695,6.51847328 L13.2613402,6.83822901 C13.3807653,6.85290992 13.4894868,6.76895267 13.5043691,6.65062595 L13.5043691,6.65062595 Z" id="Fill-5"></path>
                        <path d="M13.7085672,5.01970076 L13.7195395,4.93259237 C13.7343241,4.81426565 13.6495756,4.70654046 13.5301505,4.69183511 L10.6608695,4.33898015 L10.6608695,4.86246107 L13.4656116,5.20730382 C13.5850367,5.22198473 13.6937582,5.13792977 13.7085672,5.01970076 L13.7085672,5.01970076 Z" id="Fill-6"></path>
                        <path d="M13.9127408,3.3888 L13.9237132,3.30166718 C13.9385222,3.18334046 13.8537492,3.07561527 13.7344219,3.06093435 L10.6608695,2.68296794 L10.6608695,3.20635115 L13.6699074,3.57628092 C13.7892347,3.59108397 13.898054,3.50700458 13.9127408,3.3888 L13.9127408,3.3888 Z" id="Fill-7"></path>
                        <path d="M12.45271,13.363029 C12.5890212,13.379713 12.7132116,13.2838351 12.7301222,13.1488 L12.7334457,13.1224672 C12.7503563,12.9873588 12.6535601,12.8642687 12.5172489,12.8475603 L10.6608695,12.6192366 L10.6608695,13.1425954 L12.45271,13.363029 L12.45271,13.363029 Z" id="Fill-8"></path>
                        <path d="M10.284755,0.0020519084 L0.376114469,0.0020519084 C0.168397428,0.0020519084 0,0.170381679 0,0.378015267 L0,15.6240855 C0,15.8317191 0.168397428,15.9999511 0.376114469,15.9999511 L10.284755,15.9999511 C10.492472,15.9999511 10.6608695,15.8317191 10.6608695,15.6240855 L10.6608695,0.378015267 C10.6608695,0.170381679 10.492472,0.0020519084 10.284755,0.0020519084 L10.284755,0.0020519084 Z M6.74850675,9.76092824 C6.74374148,9.77639084 6.73027653,9.78679695 6.71519871,9.78679695 L5.9216463,9.78679695 C5.90561543,9.78679695 5.89158842,9.77504733 5.88767846,9.75833893 L5.38527203,7.63974351 C5.37640129,7.60205191 5.32667138,7.60175878 5.31740965,7.63935267 L4.79476913,9.75872977 C4.79190997,9.77038168 4.78083987,9.77409466 4.77089389,9.7784916 C4.76671511,9.78039695 4.76556656,9.78679695 4.7608746,9.78679695 L3.96685788,9.78679695 C3.95187781,9.78679695 3.93851061,9.77648855 3.93374534,9.76112366 L2.82937492,6.26513588 C2.82165273,6.2407084 2.83853891,6.21532824 2.86260965,6.21532824 L3.63409518,6.21532824 C3.64936849,6.21532824 3.66293119,6.22590534 3.66750096,6.24156336 L4.33828039,8.49394809 C4.34908167,8.53010076 4.39710096,8.52848855 4.40567846,8.49165191 L4.93308424,6.24376183 C4.93699421,6.22705344 4.95104566,6.21532824 4.96707653,6.21532824 L5.69369518,6.21532824 C5.70965273,6.21532824 5.72358199,6.22685802 5.72768746,6.2434687 L6.27552283,8.49204275 C6.28439357,8.52878168 6.33251061,8.52990534 6.3429209,8.49365496 L6.99317299,6.24183206 C6.99774277,6.22610076 7.01130547,6.21532824 7.02667653,6.21532824 L7.79825981,6.21532824 C7.8222328,6.21532824 7.83911897,6.24051298 7.83159228,6.26503817 L6.74850675,9.76092824 L6.74850675,9.76092824 Z" id="Fill-9"></path>
                    </g>
                    <rect id="Rectangle-751" x="0" y="0" width="20" height="20"></rect>
                </g>
            </g>
        </g>
    </g>
</svg>