<?xml version="1.0" encoding="UTF-8" standalone="no"?>
<svg width="20px" height="21px" viewBox="0 0 20 21" version="1.1" xmlns="http://www.w3.org/2000/svg" xmlns:xlink="http://www.w3.org/1999/xlink">
    <!-- Generator: Sketch 41.1 (35376) - http://www.bohemiancoding.com/sketch -->
    <title>icon－chongmingmin－default</title>
    <desc>Created with Sketch.</desc>
    <defs></defs>
    <g id="icon" stroke="none" stroke-width="1" fill="none" fill-rule="evenodd">
        <g id="备注" transform="translate(-106.000000, -573.000000)" fill="#D8D8D8">
            <g id="Group-16" transform="translate(37.000000, 272.000000)">
                <g id="Group-16-Copy" transform="translate(13.000000, 255.000000)">
                    <g id="Group-5" transform="translate(0.000000, 47.000000)">
                        <g id="Group-3">
                            <g id="shanchu" transform="translate(56.000000, 0.000000)">
                                <g id="icon">
                                    <path d="M16.5634286,17.1062857 L2.97028571,17.1062857 C2.72952381,17.1062857 2.53371429,17.3059048 2.53371429,17.5535238 C2.53371429,17.800381 2.72952381,18 2.97028571,18 L16.5634286,18 C16.8041905,18 17,17.800381 17,17.5535238 C17,17.3059048 16.8041905,17.1062857 16.5634286,17.1062857 L16.5634286,17.1062857 Z M4.6952381,12.6179048 C4.93904762,12.6841905 5.4472381,12.8769524 5.96609524,13.4148571 C6.36533333,13.8285714 6.5527619,14.2841905 6.63733333,14.5622857 C6.01866667,14.7664762 4.664,15.2472381 3.80304762,15.5321905 C4.05828571,14.6689524 4.4887619,13.3264762 4.6952381,12.6179048 L4.6952381,12.6179048 Z M12.6990476,4.23847619 C12.9238095,4.29409524 13.4579048,4.47619048 14.0072381,5.04609524 C14.5611429,5.62057143 14.7089524,6.27580952 14.735619,6.42133333 C12.9862857,8.21104762 8.95809524,12.3070476 7.37028571,13.9222857 C7.2232381,13.5710476 6.98628571,13.1481905 6.60457143,12.7535238 C6.13904762,12.2704762 5.66514286,11.9984762 5.30019048,11.8453333 C6.8712381,10.2293333 10.975619,6.00914286 12.6990476,4.23847619 L12.6990476,4.23847619 Z M13.4739048,3.44228571 C13.5249524,3.39047619 13.9866667,2.93638095 14.5626667,2.93638095 C14.8940952,2.93638095 15.2201905,3.09180952 15.5310476,3.39809524 C15.8998095,3.76152381 16.0902857,4.12114286 16.096381,4.4647619 C16.1024762,4.816 15.9165714,5.19466667 15.5447619,5.58933333 C15.5264762,5.60914286 15.496,5.63961905 15.4601905,5.67695238 C15.32,5.30514286 15.0731429,4.82590476 14.6457143,4.3832381 C14.2091429,3.93066667 13.7664762,3.664 13.4114286,3.50628571 L13.4739048,3.44228571 Z M3.17904762,16.6598095 C3.22552381,16.6598095 3.272,16.6521905 3.31771429,16.6369524 C3.35047619,16.6262857 6.6152381,15.5413333 7.15314286,15.376 C7.224,15.3546667 7.2887619,15.3150476 7.34133333,15.2609524 C7.68114286,14.9165714 15.6605714,6.80533333 16.1900952,6.24304762 C16.7379048,5.66247619 17.0099048,5.05904762 16.9992381,4.4472381 C16.9885714,3.84380952 16.704381,3.26247619 16.1542857,2.72 C15.6697143,2.24228571 15.1340952,2 14.5626667,2 C13.6697143,2 13.0182857,2.5927619 12.8407619,2.77485714 C12.5900952,3.03009524 4.03466667,11.8270476 4.03466667,11.8270476 C3.97904762,11.8849524 3.93866667,11.9565714 3.91733333,12.0365714 C3.72457143,12.7695238 2.75771429,16.0213333 2.74857143,16.0540952 C2.69904762,16.2201905 2.7432381,16.4015238 2.86209524,16.5241905 C2.94819048,16.6125714 3.06247619,16.6598095 3.17904762,16.6598095 L3.17904762,16.6598095 Z" id="Fill-1"></path>
                                </g>
                            </g>
                        </g>
                    </g>
                </g>
            </g>
        </g>
    </g>
</svg>