<?xml version="1.0" encoding="UTF-8" standalone="no"?>
<svg width="16px" height="17px" viewBox="0 0 16 17" version="1.1" xmlns="http://www.w3.org/2000/svg" xmlns:xlink="http://www.w3.org/1999/xlink">
    <!-- Generator: Sketch 41.1 (35376) - http://www.bohemiancoding.com/sketch -->
    <title>icon_chongmingming</title>
    <desc>Created with Sketch.</desc>
    <defs></defs>
    <g id="icon" stroke="none" stroke-width="1" fill="none" fill-rule="evenodd">
        <g id="备注" transform="translate(-281.000000, -363.000000)" fill="#546576">
            <g id="Group-16" transform="translate(37.000000, 272.000000)">
                <g id="icon操作" transform="translate(129.000000, 65.000000)">
                    <path d="M127.484659,41.0097542 L115.998517,41.0097542 L115.998517,28.5090932 L123.014803,28.5090932 L124.025055,27.5351127 L123.999452,27.508443 L115.998517,27.508443 C115.446986,27.508443 115,27.9564953 115,28.5090932 L115,41.0097542 C115,41.5612853 115.446986,42.0093376 115.998517,42.0093376 L127.484659,42.0093376 C128.03619,42.0093376 128.482109,41.5612853 128.482109,41.0097542 L128.482109,33.6862316 L127.484659,34.6410099 L127.484659,41.0097542 L127.484659,41.0097542 Z M129.530765,29.1470345 C129.251266,29.4340013 127.076078,31.5867862 123.062809,35.5456489 L122.755573,35.8496844 C122.295786,35.9926345 121.193791,36.3468092 120.360626,36.6156406 C120.628391,35.7280702 120.950562,34.6580785 121.094579,34.1513526 C121.952279,33.2936524 127.623342,27.6236564 127.839901,27.4102982 C127.881505,27.3686933 128.264484,26.9995835 128.734939,26.9995835 C129.002703,26.9995835 129.260867,27.1211977 129.523297,27.3740272 C129.835867,27.6748624 129.996953,27.9639629 130.002287,28.2338611 C130.006554,28.5112268 129.847602,28.8184627 129.530765,29.1470345 L129.530765,29.1470345 Z M130.213511,26.6518095 C129.763325,26.2186922 129.266201,26 128.734939,26 C127.904975,26 127.300104,26.5376628 127.133685,26.7019487 C126.900057,26.9313088 120.280617,33.5507491 120.280617,33.5507491 C120.228344,33.6040887 120.18994,33.6691629 120.170738,33.740638 C119.991517,34.4041822 119.093278,37.3495931 119.083677,37.3794632 C119.037805,37.5298808 119.07941,37.6941667 119.190356,37.805113 C119.270366,37.8840555 119.375978,37.9267272 119.485858,37.9267272 C119.528529,37.9267272 119.571201,37.9203264 119.613873,37.9075249 C119.643743,37.896857 122.679831,36.9143422 123.180156,36.7649914 C123.24523,36.7447224 123.304971,36.7095183 123.354043,36.6615127 C123.67088,36.3500096 129.754791,30.3514419 130.247649,29.8425824 C130.756508,29.3166543 131.009338,28.7693903 130.999737,28.2157256 C130.991202,27.6695284 130.724504,27.1425335 130.213511,26.6518095 L130.213511,26.6518095 Z" id="icon_chongmingming"></path>
                </g>
            </g>
        </g>
    </g>
</svg>