<?xml version="1.0" encoding="UTF-8" standalone="no"?>
<svg width="10px" height="10px" viewBox="0 0 10 10" version="1.1" xmlns="http://www.w3.org/2000/svg" xmlns:xlink="http://www.w3.org/1999/xlink">
    <!-- Generator: Sketch 41.1 (35376) - http://www.bohemiancoding.com/sketch -->
    <title>icon－guanbisousuo</title>
    <desc>Created with Sketch.</desc>
    <defs></defs>
    <g id="icon" stroke="none" stroke-width="1" fill="none" fill-rule="evenodd">
        <g id="备注" transform="translate(-138.000000, -474.000000)">
            <g id="Group-16" transform="translate(37.000000, 272.000000)">
                <g id="Group-5" transform="translate(16.000000, 65.000000)">
                    <g id="Group-3">
                        <g id="叉" transform="translate(60.000000, 135.000000)">
                            <path d="M34.8331808,10.6249473 C35.0556064,10.8473117 35.0556064,11.2079443 34.8331808,11.4304292 L34.4304384,11.8331702 C34.2079978,12.0556099 33.8473187,12.0556099 33.6249383,11.8331702 L30,8.20830572 L26.3750617,11.8331702 C26.1526813,12.0556099 25.7920625,12.0556099 25.5696219,11.8331702 L25.1668192,11.4304292 C24.9443936,11.2079443 24.9443936,10.8473117 25.1668192,10.6249473 L28.7917123,7.00000753 L25.1668192,3.37508283 C24.9443936,3.15270331 24.9443936,2.79208584 25.1668192,2.5696009 L25.5696219,2.16685994 C25.7920625,1.94442018 26.1526813,1.94442018 26.3750617,2.16685994 L30,5.7917244 L33.6249383,2.16685994 C33.8473187,1.94442018 34.2079978,1.94442018 34.4304384,2.16685994 L34.8331808,2.5696009 C35.0556064,2.79208584 35.0556064,3.15276355 34.8331808,3.37508283 L31.2082877,7.00000753 L34.8331808,10.6249473 Z" id="iconfont-guanbi副本" fill="#B0BDCA"></path>
                            <rect id="Rectangle-944" x="25" y="2" width="10" height="10"></rect>
                        </g>
                    </g>
                </g>
            </g>
        </g>
    </g>
</svg>