<?xml version="1.0" encoding="UTF-8" standalone="no"?>
<svg width="14px" height="16px" viewBox="0 0 14 16" version="1.1" xmlns="http://www.w3.org/2000/svg" xmlns:xlink="http://www.w3.org/1999/xlink">
    <!-- Generator: Sketch 41.1 (35376) - http://www.bohemiancoding.com/sketch -->
    <title>icon_didian</title>
    <desc>Created with Sketch.</desc>
    <defs></defs>
    <g id="icon" stroke="none" stroke-width="1" fill="none" fill-rule="evenodd" opacity="0.300000012">
        <g id="备注" transform="translate(-111.000000, -762.000000)" fill="#000000">
            <g id="Group-16" transform="translate(37.000000, 272.000000)">
                <g id="Page-1" transform="translate(73.000000, 404.000000)">
                    <g id="icon_didian" transform="translate(1.000000, 86.000000)">
                        <path d="M6.9,1 C4.4,1 2.6,3 2.6,6 C2.6,7.1 3.3,8.7 4.5,10.4 C5,11 5.5,11.7 6,12.2 C6.5,12.7 6.7,12.9 6.9,12.9 C7,12.8 7.3,12.6 7.8,12.2 C8.3,11.7 8.8,11.1 9.3,10.4 C10.5,8.8 11.2,7.2 11.2,6 C11.1,3 9.4,1 6.9,1 M6.9,13.8 C6.7,13.8 6.5,13.7 6.2,13.5 C6,13.4 5.8,13.2 5.5,13 C5,12.5 4.4,11.8 3.9,11.1 C3,10 1.7,7.9 1.7,6 C1.7,4.4 2.2,2.9 3.1,1.8 C3.6,1.2 4.1,0.8 4.8,0.5 C5.5,0.2 6.2,0 7,0 C7.8,0 8.5,0.2 9.2,0.5 C9.8,0.8 10.4,1.2 10.9,1.8 C11.8,2.9 12.3,4.4 12.3,6 C12.3,7.9 10.9,10 10.1,11.1 C9.6,11.8 9,12.5 8.5,13 C8.2,13.2 8,13.4 7.8,13.6 C7.3,13.7 7.1,13.8 6.9,13.8" id="Fill-16"></path>
                        <path d="M6.9,3.8 C6,3.8 5.3,4.5 5.3,5.5 C5.3,6.4 6,7.2 6.9,7.2 C7.8,7.2 8.5,6.5 8.5,5.5 C8.5,4.5 7.7,3.8 6.9,3.8 M6.9,8.1 C6.2,8.1 5.6,7.8 5.1,7.3 C4.6,6.8 4.4,6.1 4.4,5.4 C4.4,4.7 4.7,4 5.1,3.5 C5.6,3 6.2,2.7 6.9,2.7 C7.6,2.7 8.2,3 8.7,3.5 C9.2,4 9.4,4.7 9.4,5.4 C9.4,6.1 9.1,6.8 8.7,7.3 C8.2,7.8 7.6,8.1 6.9,8.1" id="Fill-17"></path>
                        <path d="M3,11.5 C1.2,11.9 0,12.6 0,13.5 C0,15 3.1,15.9 7,15.9 C10.9,15.9 14,15 14,13.5 C14,12.5 12.8,11.8 10.8,11.4 C10.5,11.3 10.3,11.5 10.2,11.8 C10.1,12.1 10.3,12.4 10.6,12.4 C12.1,12.7 13,13.2 13,13.4 C13,13.5 12.9,13.5 12.7,13.7 C12.4,13.9 12,14.1 11.5,14.2 C10.3,14.6 8.8,14.7 7.1,14.7 C5.4,14.7 3.8,14.5 2.7,14.2 C2.2,14 1.7,13.8 1.5,13.7 C1.1,13.7 1,13.6 1,13.6 C1,13.4 1.8,12.9 3.2,12.6 C3.5,12.5 3.7,12.2 3.6,11.9 C3.6,11.6 3.3,11.4 3,11.5" id="Fill-18"></path>
                    </g>
                </g>
            </g>
        </g>
    </g>
</svg>