<?xml version="1.0" encoding="UTF-8" standalone="no"?>
<svg width="20px" height="20px" viewBox="0 0 20 20" version="1.1" xmlns="http://www.w3.org/2000/svg" xmlns:xlink="http://www.w3.org/1999/xlink">
    <!-- Generator: Sketch 41.1 (35376) - http://www.bohemiancoding.com/sketch -->
    <title>icon－fuzhi－default</title>
    <desc>Created with Sketch.</desc>
    <defs></defs>
    <g id="icon" stroke="none" stroke-width="1" fill="none" fill-rule="evenodd">
        <g id="备注" transform="translate(-167.000000, -574.000000)" fill="#546576">
            <g id="Group-16" transform="translate(32.000000, 271.000000)">
                <g id="Group-16-Copy" transform="translate(18.000000, 256.000000)">
                    <g id="Group-5" transform="translate(0.000000, 47.000000)">
                        <g id="Group-3">
                            <g id="shanchu" transform="translate(56.000000, 0.000000)">
                                <g id="icon">
                                    <g id="fuzhi" transform="translate(63.000000, 2.000000)">
                                        <path d="M11.7752471,13.7377882 C11.7752471,14.2789647 11.3357176,14.7194353 10.7936,14.7194353 L1.96254118,14.7194353 C1.42136471,14.7194353 0.980894118,14.2789647 0.980894118,13.7377882 L0.980894118,4.90672941 C0.980894118,4.36461176 1.42136471,3.92508235 1.96254118,3.92508235 L10.7936,3.92508235 C11.3357176,3.92508235 11.7752471,4.36461176 11.7752471,4.90672941 L11.7752471,13.7377882 L11.7752471,13.7377882 Z M10.7936,2.94343529 L1.96254118,2.94343529 C0.878305882,2.94343529 0.000188235294,3.82249412 0.000188235294,4.90672941 L0.000188235294,13.7377882 C0.000188235294,14.8220235 0.878305882,15.7001412 1.96254118,15.7001412 L10.7936,15.7001412 C11.8778353,15.7001412 12.7568941,14.8220235 12.7568941,13.7377882 L12.7568941,4.90672941 C12.7568941,3.82249412 11.8778353,2.94343529 10.7936,2.94343529 L10.7936,2.94343529 Z" id="Fill-1"></path>
                                        <polygon id="Fill-3" points="2.944 6.86927059 9.81270588 6.86927059 9.81270588 5.88762353 2.944 5.88762353"></polygon>
                                        <polygon id="Fill-5" points="2.944 8.83162353 9.81270588 8.83162353 9.81270588 7.84997647 2.944 7.84997647"></polygon>
                                        <polygon id="Fill-6" points="2.94381176 10.7939765 9.81251765 10.7939765 9.81251765 9.81232941 2.94381176 9.81232941"></polygon>
                                        <polygon id="Fill-7" points="2.944 12.7563294 6.86870588 12.7563294 6.86870588 11.7746824 2.944 11.7746824"></polygon>
                                        <path d="M13.7377882,0 L4.90672941,0 C3.82249412,0 2.94343529,0.879058824 2.94343529,1.96235294 L3.92508235,1.96235294 C3.92508235,1.42117647 4.36555294,0.981647059 4.90672941,0.981647059 L13.7377882,0.981647059 C14.2789647,0.981647059 14.7194353,1.42117647 14.7194353,1.96235294 L14.7194353,10.7943529 C14.7194353,11.3355294 14.2789647,11.7750588 13.7377882,11.7750588 L13.7377882,12.7567059 C14.8220235,12.7567059 15.7001412,11.8776471 15.7001412,10.7943529 L15.7001412,1.96235294 C15.7001412,0.879058824 14.8220235,0 13.7377882,0" id="Fill-8"></path>
                                    </g>
                                </g>
                            </g>
                        </g>
                    </g>
                </g>
            </g>
        </g>
    </g>
</svg>