<?xml version="1.0" encoding="UTF-8" standalone="no"?>
<svg width="22px" height="22px" viewBox="0 0 22 22" version="1.1" xmlns="http://www.w3.org/2000/svg" xmlns:xlink="http://www.w3.org/1999/xlink">
    <!-- Generator: Sketch 41.1 (35376) - http://www.bohemiancoding.com/sketch -->
    <title>icon_shanchubiaoqian</title>
    <desc>Created with Sketch.</desc>
    <defs></defs>
    <g id="icon" stroke="none" stroke-width="1" fill="none" fill-rule="evenodd">
        <g id="备注" transform="translate(-114.000000, -443.000000)">
            <g id="Group-16" transform="translate(37.000000, 272.000000)">
                <g id="删除" transform="translate(77.000000, 171.000000)">
                    <rect id="Rectangle-7" fill="#B0BDC9" x="1" y="1" width="20" height="20"></rect>
                    <path d="M12.2176282,11.0000075 L15.8479751,14.6249473 C16.0707353,14.8473117 16.0707353,15.2079443 15.8479751,15.4304292 L15.4446267,15.8331702 C15.2218514,16.0556099 14.8606297,16.0556099 14.6379148,15.8331702 L11.0075226,12.2083057 L7.37713047,15.8331702 C7.15441554,16.0556099 6.79325415,16.0556099 6.57047888,15.8331702 L6.16707014,15.4304292 C5.94430995,15.2079443 5.94430995,14.8473117 6.16707014,14.6249473 L9.79741704,11.0000075 L6.16707014,7.37508283 C5.94430995,7.15270331 5.94430995,6.79208584 6.16707014,6.5696009 L6.57047888,6.16685994 C6.79325415,5.94442018 7.15441554,5.94442018 7.37713047,6.16685994 L11.0075226,9.7917244 L14.6379148,6.16685994 C14.8606297,5.94442018 15.2218514,5.94442018 15.4446267,6.16685994 L15.8479751,6.5696009 C16.0707353,6.79208584 16.0707353,7.15276355 15.8479751,7.37508283 L12.2176282,11.0000075 L12.2176282,11.0000075 Z" id="iconfont-guanbi副本" fill="#FFFFFF"></path>
                </g>
            </g>
        </g>
    </g>
</svg>