<?xml version="1.0" encoding="UTF-8" standalone="no"?>
<svg width="16px" height="16px" viewBox="0 0 16 16" version="1.1" xmlns="http://www.w3.org/2000/svg" xmlns:xlink="http://www.w3.org/1999/xlink">
    <!-- Generator: Sketch 41.1 (35376) - http://www.bohemiancoding.com/sketch -->
    <title>icon_fangqiluyong</title>
    <desc>Created with Sketch.</desc>
    <defs></defs>
    <g id="icon" stroke="none" stroke-width="1" fill="none" fill-rule="evenodd">
        <g id="备注" transform="translate(-358.000000, -364.000000)" fill="#546576">
            <g id="Group-16" transform="translate(37.000000, 272.000000)">
                <g id="icon操作" transform="translate(129.000000, 65.000000)">
                    <g id="icon_fangqiluyong" transform="translate(192.000000, 27.000000)">
                        <path d="M6.81889362,7.58076596 C5.0466383,7.58076596 3.60442553,6.13855319 3.60442553,4.36612766 C3.60442553,2.59353191 5.0466383,1.15148936 6.81889362,1.15148936 C8.59165957,1.15148936 10.0338723,2.59370213 10.0338723,4.36612766 C10.0338723,6.13855319 8.59165957,7.58076596 6.81889362,7.58076596 M11.1853617,4.36612766 C11.1853617,1.95846809 9.22655319,0 6.81889362,0 C4.41140426,0 2.45293617,1.9586383 2.45293617,4.36612766 C2.45293617,6.09259574 3.46280851,7.58365957 4.92017021,8.29174468 C2.15608511,9.09889362 0.0999148936,11.6188936 0.00834042553,14.6199149 C0.00731914894,14.6345532 0,14.6466383 0,14.6612766 C0,14.6691064 0.00391489362,14.6755745 0.00442553191,14.6835745 C0.00782978723,14.768 0.0285957447,14.8466383 0.0634893617,14.9188085 C0.160170213,15.1186383 0.360851064,15.2595745 0.59812766,15.2595745 C0.840510638,15.2595745 1.04629787,15.1142128 1.14025532,14.9079149 C1.16544681,14.852766 1.17514894,14.7921702 1.18246809,14.7297021 C1.18587234,14.706383 1.19659574,14.685617 1.19659574,14.6612766 C1.19659574,14.6360851 1.1853617,14.6142979 1.18195745,14.589617 C1.18195745,14.5011064 1.18417021,14.412766 1.18093617,14.3242553 C1.1787234,14.2716596 1.19217021,14.2301277 1.20289362,14.1865532 L1.18740426,14.1865532 C1.50842553,11.3698723 3.91778723,9.16646809 6.8093617,9.16646809 C8.07217021,9.16646809 9.23097872,9.59880851 10.1722553,10.3101277 C10.1766809,10.3062128 10.1805957,10.3022979 10.1845106,10.2985532 C10.2789787,10.3664681 10.3885957,10.4149787 10.5140426,10.4149787 C10.5179574,10.4149787 10.5213617,10.412766 10.5252766,10.412766 C10.7569362,10.408 10.954383,10.2685957 11.0413617,10.0680851 C11.0718298,9.99778723 11.0897021,9.92068085 11.0897021,9.83914894 C11.0897021,9.66961702 11.0132766,9.52085106 10.8968511,9.41582979 C10.8973617,9.41548936 10.8980426,9.41531915 10.8980426,9.4146383 C10.2469787,8.91642553 9.50485106,8.53787234 8.70365957,8.29855319 C10.1688511,7.5933617 11.1853617,6.09821277 11.1853617,4.36612766" id="Fill-1"></path>
                        <path d="M14.603234,13.0428936 L15.7732766,11.8725106 C15.9981277,11.6474894 15.9981277,11.283234 15.7732766,11.058383 C15.5482553,10.8335319 15.184,10.8335319 14.9591489,11.058383 L13.7891064,12.228766 L12.6185532,11.058383 C12.3937021,10.8335319 12.0292766,10.8335319 11.8044255,11.058383 C11.5795745,11.283234 11.5795745,11.6476596 11.8044255,11.8725106 L12.9744681,13.0428936 L11.8044255,14.2129362 C11.5795745,14.4377872 11.5795745,14.8022128 11.8044255,15.0270638 C11.9169362,15.1395745 12.0641702,15.1957447 12.2114043,15.1957447 C12.3588085,15.1957447 12.5060426,15.1395745 12.6185532,15.0270638 L13.7891064,13.8566809 L14.9591489,15.0270638 C15.0716596,15.1395745 15.2188936,15.1957447 15.3661277,15.1957447 C15.5135319,15.1957447 15.660766,15.1395745 15.7732766,15.0270638 C15.9981277,14.8020426 15.9981277,14.4377872 15.7732766,14.2129362 L14.603234,13.0428936 Z" id="Fill-3"></path>
                    </g>
                </g>
            </g>
        </g>
    </g>
</svg>