<?xml version="1.0" encoding="UTF-8" standalone="no"?>
<svg width="20px" height="20px" viewBox="0 0 20 20" version="1.1" xmlns="http://www.w3.org/2000/svg" xmlns:xlink="http://www.w3.org/1999/xlink">
    <!-- Generator: Sketch 41.1 (35376) - http://www.bohemiancoding.com/sketch -->
    <title>icon_bianji</title>
    <desc>Created with Sketch.</desc>
    <defs></defs>
    <g id="icon" stroke="none" stroke-width="1" fill="none" fill-rule="evenodd">
        <g id="备注" transform="translate(-433.000000, -362.000000)" fill="#546576">
            <g id="Group-16" transform="translate(37.000000, 272.000000)">
                <g id="icon操作" transform="translate(129.000000, 65.000000)">
                    <path d="M283.860269,31.154267 L282.922223,32.0931717 L279.904683,29.0782063 L280.846162,28.1384434 C280.968889,28.0148581 281.145685,27.9444832 281.331063,27.9444832 C281.517299,27.9444832 281.694953,28.0148581 281.81768,28.1384434 L283.861128,30.1818913 C283.991579,30.3123424 284.062812,30.4848469 284.062812,30.6676501 C284.062812,30.8513115 283.991579,31.0238159 283.860269,31.154267 L283.860269,31.154267 Z M274.66175,40.3536448 L271.659658,37.3515529 L278.725473,30.2591321 L281.741297,33.2732393 L274.66175,40.3536448 Z M271.790967,41.2822507 L270.71732,40.2077455 L271.240841,38.2569865 L273.743443,40.759588 L271.790967,41.2822507 Z M284.522824,29.5201952 L282.480234,27.4767473 C282.172987,27.1695006 281.765327,27.0004291 281.331921,27.0004291 C280.897656,27.0004291 280.489996,27.1695006 280.18275,27.4758891 L270.603175,37.0863595 L270.578287,37.11039 L269,42.9995709 L274.92866,41.4109854 L284.522824,31.8168213 C284.83007,31.5095746 285,31.1010567 285,30.6676501 C285,30.2342434 284.830928,29.8265837 284.522824,29.5201952 L284.522824,29.5201952 Z" id="icon_bianji"></path>
                </g>
            </g>
        </g>
    </g>
</svg>