<?xml version="1.0" encoding="UTF-8" standalone="no"?>
<svg width="20px" height="21px" viewBox="0 0 20 21" version="1.1" xmlns="http://www.w3.org/2000/svg" xmlns:xlink="http://www.w3.org/1999/xlink">
    <!-- Generator: Sketch 41.1 (35376) - http://www.bohemiancoding.com/sketch -->
    <title>icon－bianji－chongmingmin－bianji－default</title>
    <desc>Created with Sketch.</desc>
    <defs></defs>
    <g id="icon" stroke="none" stroke-width="1" fill="none" fill-rule="evenodd">
        <g id="备注" transform="translate(-106.000000, -601.000000)" fill="#546576">
            <g id="Group-16" transform="translate(37.000000, 272.000000)">
                <g id="Group-16-Copy" transform="translate(13.000000, 255.000000)">
                    <g id="Group-5" transform="translate(0.000000, 47.000000)">
                        <g id="Group-3">
                            <g id="shanchu" transform="translate(56.000000, 0.000000)">
                                <g id="icon">
                                    <path d="M16.5634286,45.1062857 L2.97028571,45.1062857 C2.72952381,45.1062857 2.53371429,45.3059048 2.53371429,45.5535238 C2.53371429,45.800381 2.72952381,46 2.97028571,46 L16.5634286,46 C16.8041905,46 17,45.800381 17,45.5535238 C17,45.3059048 16.8041905,45.1062857 16.5634286,45.1062857 L16.5634286,45.1062857 Z M4.6952381,40.6179048 C4.93904762,40.6841905 5.4472381,40.8769524 5.96609524,41.4148571 C6.36533333,41.8285714 6.5527619,42.2841905 6.63733333,42.5622857 C6.01866667,42.7664762 4.664,43.2472381 3.80304762,43.5321905 C4.05828571,42.6689524 4.4887619,41.3264762 4.6952381,40.6179048 L4.6952381,40.6179048 Z M12.6990476,32.2384762 C12.9238095,32.2940952 13.4579048,32.4761905 14.0072381,33.0460952 C14.5611429,33.6205714 14.7089524,34.2758095 14.735619,34.4213333 C12.9862857,36.2110476 8.95809524,40.3070476 7.37028571,41.9222857 C7.2232381,41.5710476 6.98628571,41.1481905 6.60457143,40.7535238 C6.13904762,40.2704762 5.66514286,39.9984762 5.30019048,39.8453333 C6.8712381,38.2293333 10.975619,34.0091429 12.6990476,32.2384762 L12.6990476,32.2384762 Z M13.4739048,31.4422857 C13.5249524,31.3904762 13.9866667,30.936381 14.5626667,30.936381 C14.8940952,30.936381 15.2201905,31.0918095 15.5310476,31.3980952 C15.8998095,31.7615238 16.0902857,32.1211429 16.096381,32.4647619 C16.1024762,32.816 15.9165714,33.1946667 15.5447619,33.5893333 C15.5264762,33.6091429 15.496,33.639619 15.4601905,33.6769524 C15.32,33.3051429 15.0731429,32.8259048 14.6457143,32.3832381 C14.2091429,31.9306667 13.7664762,31.664 13.4114286,31.5062857 L13.4739048,31.4422857 Z M3.17904762,44.6598095 C3.22552381,44.6598095 3.272,44.6521905 3.31771429,44.6369524 C3.35047619,44.6262857 6.6152381,43.5413333 7.15314286,43.376 C7.224,43.3546667 7.2887619,43.3150476 7.34133333,43.2609524 C7.68114286,42.9165714 15.6605714,34.8053333 16.1900952,34.2430476 C16.7379048,33.6624762 17.0099048,33.0590476 16.9992381,32.4472381 C16.9885714,31.8438095 16.704381,31.2624762 16.1542857,30.72 C15.6697143,30.2422857 15.1340952,30 14.5626667,30 C13.6697143,30 13.0182857,30.5927619 12.8407619,30.7748571 C12.5900952,31.0300952 4.03466667,39.8270476 4.03466667,39.8270476 C3.97904762,39.8849524 3.93866667,39.9565714 3.91733333,40.0365714 C3.72457143,40.7695238 2.75771429,44.0213333 2.74857143,44.0540952 C2.69904762,44.2201905 2.7432381,44.4015238 2.86209524,44.5241905 C2.94819048,44.6125714 3.06247619,44.6598095 3.17904762,44.6598095 L3.17904762,44.6598095 Z" id="Fill-1"></path>
                                </g>
                            </g>
                        </g>
                    </g>
                </g>
            </g>
        </g>
    </g>
</svg>