<?xml version="1.0" encoding="UTF-8" standalone="no"?>
<svg width="20px" height="20px" viewBox="0 0 20 20" version="1.1" xmlns="http://www.w3.org/2000/svg" xmlns:xlink="http://www.w3.org/1999/xlink">
    <!-- Generator: Sketch 41.1 (35376) - http://www.bohemiancoding.com/sketch -->
    <title>icon-tixing-default</title>
    <desc>Created with Sketch.</desc>
    <defs></defs>
    <g id="候选人列表" stroke="none" stroke-width="1" fill="none" fill-rule="evenodd">
        <g id="1.0.1-PC-offer管理_修改" transform="translate(-807.000000, -18.000000)">
            <g id="tab" transform="translate(80.000000, 0.000000)">
                <g id="提醒icon" transform="translate(727.000000, 18.000000)">
                    <g id="iconfont-tixing" transform="translate(3.000000, 2.000000)" fill="#B0BDC9">
                        <path d="M13.7809502,11.1149507 C13.7326416,11.0393632 13.6762522,10.9653521 13.613453,10.8929173 C12.6808642,9.62676978 11.8545856,8.09764249 11.8545856,6.10708955 C11.8513611,3.71653057 10.3791992,1.72597763 8.16290475,1.2078806 L8.16290475,1.13700295 C8.16290475,0.511810883 7.63943442,0 7,0 C6.36056558,0 5.83709525,0.511810883 5.83709525,1.13700295 L5.83709525,1.2078806 C3.61918859,1.72597763 2.1470266,3.71810691 2.1438021,6.10551321 C2.1438021,8.23149688 1.2031717,9.82046744 0.194885738,11.1354239 C0.064411388,11.379526 0,11.5968495 0,11.8189021 C0.0466962901,13.3873994 3.16337382,14 7,14 C10.865627,14 14,13.3795177 14,11.8189021 C14,11.5921205 13.9339764,11.3700679 13.8067265,11.1590497 C13.7954604,11.1354239 13.7873992,11.1244087 13.7809502,11.1149507 Z" id="Fill-1"></path>
                        <path d="M9.5,14.5 C8.92188,15.4125558 8.01703946,16 7,16 C5.98296054,16 5.07812,15.4125558 4.5,14.5 C5.31696983,14.6395353 6.15159584,14.7116741 7,14.7116741 C7.84840416,14.7116741 8.68303017,14.6395353 9.5,14.5 Z" id="Combined-Shape"></path>
                    </g>
                    <rect id="icon-tixing-default" x="0" y="0" width="20" height="20"></rect>
                </g>
            </g>
        </g>
    </g>
</svg>