<?xml version="1.0" encoding="UTF-8"?>
<svg width="20px" height="20px" viewBox="0 0 20 20" version="1.1" xmlns="http://www.w3.org/2000/svg" xmlns:xlink="http://www.w3.org/1999/xlink">
    <!-- Generator: Sketch 39.1 (31720) - http://www.bohemiancoding.com/sketch -->
    <title>icon－pdf</title>
    <desc>Created with Sketch.</desc>
    <defs></defs>
    <g id="Page-1" stroke="none" stroke-width="1" fill="none" fill-rule="evenodd">
        <g id="1-_10_项目管理_编辑员工信息-copy-2" transform="translate(-173.000000, -1779.000000)">
            <g id="Group-8" transform="translate(173.000000, 1779.000000)">
                <g id="任务附件">
                    <g id="01">
                        <g id="pdf">
                            <g id="icon-pdf" transform="translate(3.000000, 2.000000)">
                                <path d="M11.0007488,0 L0.998502329,0 C0.447489426,0 0,0.448105505 0,1.00087166 L0,14.9991283 C0,15.5553691 0.44704472,16 0.998502329,16 L12.0014977,16 C12.5525106,16 13,15.5566596 13,15.0097714 L13,1.95399778 L13,2.99999988 L10,0 L11.0007488,0 Z M12,6.74545527 L9.94937493,6.74545527 L9.94937493,7.70910315 L11.7341826,7.70910315 L11.7341826,8.4363738 L9.94937493,8.4363738 L9.94937493,10 L9,10 L9,6 L12,6 L12,6.74545527 Z M2.4913354,8.60001255 L1.85709623,8.60001255 L1.85709623,10 L1,10 L1,6 L2.57703642,6 C3.49118062,6.02443629 3.9655263,6.44261407 3.99981531,7.25455614 C4.01106572,8.16365016 3.50832513,8.61221929 2.4913354,8.60001255 Z M2.48455693,6.6000061 L1.90000153,6.6000061 L1.90000153,8.1000061 L2.48455693,8.1000061 C2.94513661,8.08531234 3.18123956,7.83136029 3.19313251,7.33882423 C3.18123956,6.86129099 2.94513661,6.61503701 2.48455693,6.6000061 Z M6.13609013,9.99759366 L5,9.99759366 L5,6 L6.08874562,6 C7.34047438,6.0122222 7.97682347,6.66636062 7.99801068,7.96246087 C8.03992968,9.36785403 7.41936211,10.0458668 6.13609013,9.99759366 Z M6.00114435,6.79998779 L5.69999695,6.79998779 L5.69999695,9.2418592 L6.00114435,9.2418592 C6.81600071,9.2418592 7.22345112,8.82325455 7.22345112,7.98604525 C7.19964298,7.20714511 6.7922148,6.81169778 6.00114435,6.79998779 Z" id="Combined-Shape" fill="#E2628A"></path>
                                <polygon id="Rectangle-2" fill="#F090AD" transform="translate(11.500000, 1.500000) scale(-1, -1) translate(-11.500000, -1.500000) " points="10 1.0658141e-14 13 1.0658141e-14 13 3"></polygon>
                            </g>
                            <rect id="Rectangle-837" x="0" y="0" width="20" height="20"></rect>
                        </g>
                    </g>
                </g>
            </g>
        </g>
    </g>
</svg>