<?xml version="1.0" encoding="UTF-8"?>
<svg width="12px" height="12px" viewBox="0 0 12 12" version="1.1" xmlns="http://www.w3.org/2000/svg" xmlns:xlink="http://www.w3.org/1999/xlink">
    <!-- Generator: Sketch 40.2 (33826) - http://www.bohemiancoding.com/sketch -->
    <title>icon－guanbi</title>
    <desc>Created with Sketch.</desc>
    <defs></defs>
    <g id="审批" stroke="none" stroke-width="1" fill="none" fill-rule="evenodd">
        <g id="汇总" transform="translate(-468.000000, -80.000000)">
            <g id="控件－pc" transform="translate(468.000000, 80.000000)">
                <g id="关闭">
                    <path d="M11.8551674,0.843641339 C12.0482453,0.650660013 12.0482453,0.337789762 11.8551674,0.144808435 C11.6621861,-0.0482694784 11.3493158,-0.0482694784 11.1563345,0.144808435 L6.00002415,5.30109466 L0.843665486,0.144808435 C0.650660013,-0.0482694784 0.337789762,-0.0482694784 0.144808435,0.144808435 C-0.0482694784,0.337789762 -0.0482694784,0.650660013 0.144808435,0.843641339 L5.30109466,6.00002415 L0.144808435,11.1563345 C-0.0482694784,11.3493158 -0.0482694784,11.6621861 0.144808435,11.8551674 C0.241299099,11.9517547 0.367780103,11.9999517 0.494188667,11.9999517 C0.620669672,11.9999517 0.747150676,11.9517547 0.843665486,11.8551674 L6.00002415,6.6988812 L11.1563104,11.8551674 C11.252801,11.9517547 11.379282,11.9999517 11.5057872,11.9999517 C11.6322923,11.9999517 11.7587733,11.9517547 11.855264,11.8551674 C12.0482453,11.6621861 12.0482453,11.3493158 11.855264,11.1563345 L6.6988812,6.00002415 L11.8551674,0.843641339 Z" fill="#546576"></path>
                    <rect id="Rectangle-293" x="0" y="0" width="12" height="12"></rect>
                </g>
            </g>
        </g>
    </g>
</svg>