<?xml version="1.0" encoding="UTF-8"?>
<svg width="20px" height="20px" viewBox="0 0 20 20" version="1.1" xmlns="http://www.w3.org/2000/svg" xmlns:xlink="http://www.w3.org/1999/xlink">
    <!-- Generator: Sketch 39.1 (31720) - http://www.bohemiancoding.com/sketch -->
    <title>icon－shanchu－default</title>
    <desc>Created with Sketch.</desc>
    <defs>
        <path d="M2.071892,3.00684547 C2.03163284,2.45078007 2.4498834,2 3.00811437,2 L12.1394858,2 C12.6968063,2 13.1160275,2.44994876 13.0757081,3.00684547 L12.2078988,14.9931545 C12.1676396,15.5492199 11.6950105,16 11.1413801,16 L4.00622003,16 C3.45745719,16 2.98002071,15.5500512 2.93970136,14.9931545 L2.071892,3.00684547 Z" id="path-1"></path>
        <mask id="mask-2" maskContentUnits="userSpaceOnUse" maskUnits="objectBoundingBox" x="0" y="0" width="11.0091759" height="14" fill="white">
            <use xlink:href="#path-1"></use>
        </mask>
        <rect id="path-3" x="3.99902858" y="0" width="6.99830001" height="3" rx="1"></rect>
        <mask id="mask-4" maskContentUnits="userSpaceOnUse" maskUnits="objectBoundingBox" x="0" y="0" width="6.99830001" height="3" fill="white">
            <use xlink:href="#path-3"></use>
        </mask>
        <rect id="path-5" x="0" y="2" width="15" height="1" rx="0.5"></rect>
        <mask id="mask-6" maskContentUnits="userSpaceOnUse" maskUnits="objectBoundingBox" x="0" y="0" width="15" height="1" fill="white">
            <use xlink:href="#path-5"></use>
        </mask>
    </defs>
    <g id="Page-1" stroke="none" stroke-width="1" fill="none" fill-rule="evenodd">
        <g id="1-_12_项目管理_编辑员工信息-copy-4" transform="translate(-781.000000, -550.000000)">
            <g id="家庭" transform="translate(148.000000, 432.000000)">
                <g id="shanchu" transform="translate(632.000000, 118.000000)">
                    <g id="icon－删除" transform="translate(2.000000, 2.000000)">
                        <path d="M9.47597166,13.7165268 C9.69406883,13.7165268 9.87078947,13.5460878 9.87078947,13.335961 L10.2656883,5.34372683 C10.2656883,5.13352195 10.0888866,4.96316098 9.87078947,4.96316098 C9.65279352,4.96316098 9.47597166,5.13352195 9.47597166,5.34372683 L9.08115385,13.335961 C9.08115385,13.5460878 9.25789474,13.7165268 9.47597166,13.7165268 L9.47597166,13.7165268 Z" id="Fill-1" fill="#999999"></path>
                        <path d="M5.52765182,13.7165268 C5.74574899,13.7165268 5.92246964,13.5460878 5.92246964,13.335961 L5.52765182,5.34372683 C5.52765182,5.13352195 5.35093117,4.96316098 5.13283401,4.96316098 C4.91475709,4.96316098 4.73803644,5.13352195 4.73803644,5.34372683 L5.13283401,13.335961 C5.13283401,13.5460878 5.30965587,13.7165268 5.52765182,13.7165268 L5.52765182,13.7165268 Z" id="Fill-2" fill="#999999"></path>
                        <path d="M7.50182186,13.7165268 C7.71989879,13.7165268 7.89663968,13.5460878 7.89663968,13.335961 L7.89663968,5.34372683 C7.89663968,5.13352195 7.71989879,4.96316098 7.50182186,4.96316098 C7.28380567,4.96316098 7.10700405,5.13352195 7.10700405,5.34372683 L7.10700405,13.335961 C7.10700405,13.5460878 7.28380567,13.7165268 7.50182186,13.7165268 L7.50182186,13.7165268 Z" id="Fill-3" fill="#999999"></path>
                        <use id="Rectangle-605" stroke="#979797" mask="url(#mask-2)" stroke-width="2" xlink:href="#path-1"></use>
                        <use id="Rectangle" stroke="#999999" mask="url(#mask-4)" stroke-width="2" xlink:href="#path-3"></use>
                        <use id="Rectangle-604" stroke="#979797" mask="url(#mask-6)" stroke-width="2" fill="#D8D8D8" xlink:href="#path-5"></use>
                    </g>
                    <rect id="Rectangle-754" x="0" y="0" width="20" height="20"></rect>
                </g>
            </g>
        </g>
    </g>
</svg>