<?xml version="1.0" encoding="UTF-8" standalone="no"?>
<svg width="20px" height="20px" viewBox="0 0 20 20" version="1.1" xmlns="http://www.w3.org/2000/svg" xmlns:xlink="http://www.w3.org/1999/xlink">
    <!-- Generator: Sketch 39.1 (31720) - http://www.bohemiancoding.com/sketch -->
    <title>icon－searchchengyuan</title>
    <desc>Created with Sketch.</desc>
    <defs/>
    <g id="消息" stroke="none" stroke-width="1" fill="none" fill-rule="evenodd">
        <g id="状态汇总" transform="translate(-378.000000, -37.000000)">
            <g id="Group-3" transform="translate(14.000000, 12.000000)">
                <g id="search" transform="translate(364.000000, 25.000000)">
                    <path d="M17.9194139,17.5317411 L13.4153651,13.0277705 C14.488928,11.8574457 15.1454554,10.2986862 15.1454554,8.58912821 C15.1454554,4.96496215 12.1970403,2.01639072 8.57271795,2.01639072 C4.94841514,2.01639072 2,4.96496215 2,8.58912821 C2,12.2132747 4.94841514,15.1618462 8.57271795,15.1618462 C10.2822759,15.1618462 11.8409573,14.5053382 13.0112234,13.4318339 L17.5153309,17.9358046 C17.5711258,17.9915995 17.6442295,18.0195165 17.7173333,18.0195165 C17.7905153,18.0195165 17.8636386,17.9915995 17.9194139,17.9358046 C18.0310623,17.8241563 18.0310623,17.6433895 17.9194139,17.5317411 L17.9194139,17.5317411 Z M2.57158486,8.58912821 C2.57158486,5.27998046 5.2637265,2.58797558 8.57271795,2.58797558 C11.8817094,2.58797558 14.5738706,5.28005861 14.5738706,8.58912821 C14.5738706,11.8981978 11.8817094,14.5902613 8.57271795,14.5902613 C5.2637265,14.5902613 2.57158486,11.8981978 2.57158486,8.58912821 L2.57158486,8.58912821 Z" id="Fill-1" fill="#272636"/>
                    <path d="M7.35843712,3.88407326 C5.64606593,4.32484493 4.30845421,5.66245665 3.86752625,7.37476923 C3.82821978,7.52769719 3.92033211,7.6833602 4.07326007,7.72274481 C4.09691819,7.72885958 4.1209475,7.73182906 4.14468376,7.73182906 C4.27190232,7.73182906 4.38804396,7.64628083 4.42125519,7.51730403 C4.80998291,6.00654457 5.99015385,4.82652991 7.50075702,4.43748962 C7.65368498,4.39810501 7.74579731,4.242442 7.70651038,4.08949451 C7.66712576,3.93672283 7.50999756,3.84584127 7.35843712,3.88407326 L7.35843712,3.88407326 Z" id="Fill-2" fill="#272636"/>
                    <rect id="Rectangle-590" x="0" y="0" width="20" height="20"/>
                </g>
            </g>
        </g>
    </g>
</svg>