<?xml version="1.0" encoding="UTF-8" standalone="no"?>
<svg width="19px" height="16px" viewBox="0 0 19 16" version="1.1" xmlns="http://www.w3.org/2000/svg" xmlns:xlink="http://www.w3.org/1999/xlink">
    <!-- Generator: Sketch 41.1 (35376) - http://www.bohemiancoding.com/sketch -->
    <title>icon_fasong</title>
    <desc>Created with Sketch.</desc>
    <defs></defs>
    <g id="icon" stroke="none" stroke-width="1" fill="none" fill-rule="evenodd">
        <g id="备注" transform="translate(-240.000000, -365.000000)" stroke="#546576" stroke-width="0.3" fill="#546576">
            <g id="Group-16" transform="translate(37.000000, 272.000000)">
                <g id="icon操作" transform="translate(129.000000, 65.000000)">
                    <g id="icon_fasong" transform="translate(75.000000, 28.000000)">
                        <g id="Group-3" transform="translate(9.736364, 7.296500)">
                            <path d="M3.71045864,0.333192273 C1.692945,0.333192273 0.0523677273,1.974465 0.0523677273,3.99128318 C0.0523677273,6.00879682 1.692945,7.65006955 3.71045864,7.65006955 C5.72797227,7.65006955 7.36854955,6.00879682 7.36854955,3.99128318 C7.36854955,1.974465 5.72797227,0.333192273 3.71045864,0.333192273 M3.71045864,7.03041955 C2.03510864,7.03041955 0.671322273,5.66732864 0.671322273,3.99128318 C0.671322273,2.31593318 2.03510864,0.952842273 3.71045864,0.952842273 C5.38580864,0.952842273 6.749595,2.31593318 6.749595,3.99128318 C6.749595,5.66732864 5.38580864,7.03041955 3.71045864,7.03041955" id="Fill-1"></path>
                        </g>
                        <g id="Group-6" transform="translate(0.000000, 0.341955)">
                            <path d="M8.52828955,11.8624377 L1.070235,11.8624377 C0.821957727,11.8624377 0.619580455,11.6600605 0.619580455,11.4110877 L0.619580455,1.423665 C0.619580455,1.17538773 0.821957727,0.973010455 1.070235,0.973010455 L15.4536259,0.973010455 C15.7019032,0.973010455 15.9042805,1.17538773 15.9042805,1.423665 L15.9042805,6.96782864 C15.9042805,7.13891045 16.0426759,7.27730591 16.2137577,7.27730591 C16.3848395,7.27730591 16.5239305,7.13891045 16.5239305,6.96782864 L16.5239305,1.423665 C16.5239305,0.833919545 16.0433714,0.353360455 15.4536259,0.353360455 L1.070235,0.353360455 C0.480489545,0.353360455 -6.95454546e-05,0.833919545 -6.95454546e-05,1.423665 L-6.95454546e-05,11.4110877 C-6.95454546e-05,12.0015286 0.480489545,12.4820877 1.070235,12.4820877 L8.52828955,12.4820877 C8.69937136,12.4820877 8.83776682,12.3429968 8.83776682,12.171915 C8.83776682,12.0008332 8.69937136,11.8624377 8.52828955,11.8624377" id="Fill-4"></path>
                        </g>
                        <path d="M14.5098941,2.24423182 L8.26193045,8.52696818 C8.24941227,8.53044545 8.230635,8.53044545 8.21881227,8.52766364 L2.01466227,2.24492727 C1.89434864,2.12322273 1.69823045,2.12183182 1.57652591,2.24214545 C1.45482136,2.36245909 1.45343045,2.55857727 1.57374409,2.68028182 L7.80293045,8.98875 C7.81336227,8.99848636 7.82379409,9.00822273 7.83561682,9.01726364 C7.95036682,9.10489091 8.09502136,9.1494 8.23967591,9.1494 C8.38433045,9.1494 8.528985,9.10489091 8.64443045,9.01726364 C8.65555773,9.00822273 8.66598955,8.99918182 8.67572591,8.98944545 L14.9494214,2.68097727 C15.069735,2.55996818 15.0690395,2.36385 14.9480305,2.24284091 C14.8263259,2.12252727 14.6302077,2.12252727 14.5098941,2.24423182" id="Fill-7"></path>
                        <path d="M15.1162609,10.9783759 L12.5249973,10.9783759 L13.14882,10.3545532 C13.2698291,10.2342395 13.2698291,10.0381214 13.14882,9.91711227 C13.0278109,9.79610318 12.8316927,9.79610318 12.7106836,9.91641682 L11.5583155,11.068785 C11.5562291,11.0715668 11.5548382,11.0743486 11.5520564,11.076435 C11.5409291,11.0889532 11.5298018,11.1014714 11.5200655,11.1153805 C11.5165882,11.1209441 11.5138064,11.1272032 11.5103291,11.1327668 C11.50407,11.1445895 11.49642,11.1564123 11.4915518,11.1689305 C11.48877,11.175885 11.4873791,11.183535 11.4845973,11.1904895 C11.4804245,11.2023123 11.4762518,11.214135 11.47347,11.2266532 C11.4692973,11.2468214 11.4672109,11.2669895 11.4672109,11.2878532 C11.4672109,11.2892441 11.4679064,11.2899395 11.4679064,11.290635 C11.4679064,11.3101077 11.4699927,11.3302759 11.47347,11.3490532 C11.4769473,11.3636577 11.4818155,11.3768714 11.4859882,11.390085 C11.4880745,11.3956486 11.4894655,11.4019077 11.4915518,11.4067759 C11.4978109,11.4220759 11.5054609,11.435985 11.5138064,11.4491986 C11.5158927,11.4526759 11.5172836,11.4568486 11.5200655,11.4603259 C11.5311927,11.4770168 11.5444064,11.4930123 11.5583155,11.5076168 L12.7106836,12.6592895 C12.7711882,12.7197941 12.85047,12.7503941 12.9297518,12.7503941 C13.0090336,12.7503941 13.0883155,12.7197941 13.14882,12.6592895 C13.2698291,12.5382805 13.2698291,12.3421623 13.14882,12.2211532 L12.5249973,11.5980259 L15.1162609,11.5980259 C15.2873427,11.5980259 15.4257382,11.458935 15.4257382,11.2878532 C15.4257382,11.1167714 15.2873427,10.9783759 15.1162609,10.9783759" id="Fill-9"></path>
                    </g>
                </g>
            </g>
        </g>
    </g>
</svg>