<?xml version="1.0" encoding="UTF-8" standalone="no"?>
<svg width="30px" height="25px" viewBox="0 0 30 25" version="1.1" xmlns="http://www.w3.org/2000/svg" xmlns:xlink="http://www.w3.org/1999/xlink">
    <!-- Generator: Sketch 41.1 (35376) - http://www.bohemiancoding.com/sketch -->
    <title>icon－排序－hov</title>
    <desc>Created with Sketch.</desc>
    <defs>
        <linearGradient x1="50%" y1="100%" x2="50%" y2="0%" id="linearGradient-1">
            <stop stop-color="#F4F7FA" offset="0%"></stop>
            <stop stop-color="#FFFFFF" offset="100%"></stop>
        </linearGradient>
    </defs>
    <g id="候选人列表" stroke="none" stroke-width="1" fill="none" fill-rule="evenodd">
        <g id="1.0.1-PC-offer管理_修改" transform="translate(-721.000000, -170.000000)">
            <g id="body-copy" transform="translate(90.000000, 65.000000)">
                <g id="排序" transform="translate(631.000000, 105.000000)">
                    <path d="M10.0018978,18.4741479 L10.0018978,8.16849521 L6.96443191,11.7806995 C6.74381125,12.0153352 6.38603989,12.0153352 6.16560426,11.7806995 C5.94479858,11.5460396 5.94479858,11.1659999 6.16560426,10.9312673 L10.0018978,6.26127365 C10.1197133,6.13639274 10.3459483,5.99184039 10.5000751,6.0003594 C10.654202,5.9919372 10.8906446,6.13639274 11.0083675,6.26127364 L14.834731,10.9312673 C15.0550972,11.1659999 15.0550972,11.5460396 14.834731,11.7806995 C14.6139253,12.0153352 14.2559921,12.0153352 14.0354639,11.7806995 L11.0083675,8.16849521 L11.0083675,18.5 L10.9996895,18.5 C10.9998997,18.5059573 11.0000057,18.5119412 11.0000057,18.5179498 C11.0000057,18.7940921 10.776148,19.0179498 10.5000057,19.0179498 C10.2238633,19.0179498 10.0000057,18.7940921 10.0000057,18.5179498 C10.0000057,18.5031911 10.0006451,18.4885817 10.0018978,18.4741479 Z M13.0000057,18.5179498 C13.0000057,18.2418074 13.2224788,18.0179498 13.5096715,18.0179498 L21.4903398,18.0179498 C21.7718205,18.0179498 22.0000057,18.2498834 22.0000057,18.5179498 C22.0000057,18.7940921 21.7775325,19.0179498 21.4903398,19.0179498 L13.5096715,19.0179498 C13.2281908,19.0179498 13.0000057,18.7860162 13.0000057,18.5179498 Z M13.0000057,14.5179498 C13.0000057,14.2418074 13.2224788,14.0179498 13.5096715,14.0179498 L21.4903398,14.0179498 C21.7718205,14.0179498 22.0000057,14.2498834 22.0000057,14.5179498 C22.0000057,14.7940921 21.7775325,15.0179498 21.4903398,15.0179498 L13.5096715,15.0179498 C13.2281908,15.0179498 13.0000057,14.7860162 13.0000057,14.5179498 Z M14.0000057,6.51794976 C14.0000057,6.24180738 14.2308025,6.01794976 14.5004415,6.01794976 L21.4995698,6.01794976 C21.7759529,6.01794976 22.0000057,6.24988335 22.0000057,6.51794976 C22.0000057,6.79409213 21.7692089,7.01794976 21.4995698,7.01794976 L14.5004415,7.01794976 C14.2240584,7.01794976 14.0000057,6.78601617 14.0000057,6.51794976 Z M16.0000057,10.5179498 C16.0000057,10.2418074 16.2278862,10.0179498 16.4910109,10.0179498 L21.5090005,10.0179498 C21.7801752,10.0179498 22.0000057,10.2498834 22.0000057,10.5179498 C22.0000057,10.7940921 21.7721252,11.0179498 21.5090005,11.0179498 L16.4910109,11.0179498 C16.2198362,11.0179498 16.0000057,10.7860162 16.0000057,10.5179498 Z" id="icon－排序" fill="#546576"></path>
                    <rect id="Rectangle-762" x="0" y="0" width="30" height="25"></rect>
                </g>
            </g>
        </g>
    </g>
</svg>