<?xml version="1.0" encoding="UTF-8" standalone="no"?>
<svg width="20px" height="20px" viewBox="0 0 20 20" version="1.1" xmlns="http://www.w3.org/2000/svg" xmlns:xlink="http://www.w3.org/1999/xlink">
    <!-- Generator: Sketch 41.1 (35376) - http://www.bohemiancoding.com/sketch -->
    <title>icon_bianji_youxiang</title>
    <desc>Created with Sketch.</desc>
    <defs></defs>
    <g id="icon" stroke="none" stroke-width="1" fill="none" fill-rule="evenodd">
        <g id="备注" transform="translate(-114.000000, -413.000000)" fill="#578ADE">
            <g id="Group-16" transform="translate(37.000000, 272.000000)">
                <g id="编辑" transform="translate(77.000000, 141.000000)">
                    <path d="M4.21249402,13.9451429 C4.48677973,14.0197143 5.05849402,14.2365714 5.6422083,14.8417143 C6.09135116,15.3071429 6.3022083,15.8197143 6.39735116,16.1325714 C5.70135116,16.3622857 4.17735116,16.9031429 3.20877973,17.2237143 C3.49592259,16.2525714 3.9802083,14.7422857 4.21249402,13.9451429 L4.21249402,13.9451429 Z M13.2167797,4.51828571 C13.4696369,4.58085714 14.070494,4.78571429 14.688494,5.42685714 C15.3116369,6.07314286 15.4779226,6.81028571 15.5079226,6.974 C13.5399226,8.98742857 9.0082083,13.5954286 7.22192259,15.4125714 C7.05649402,15.0174286 6.78992259,14.5417143 6.36049402,14.0977143 C5.83677973,13.5542857 5.30363687,13.2482857 4.89306545,13.076 C6.66049402,11.258 11.2779226,6.51028571 13.2167797,4.51828571 L13.2167797,4.51828571 Z M14.088494,3.62257143 C14.1459226,3.56428571 14.6653512,3.05342857 15.3133512,3.05342857 C15.6862083,3.05342857 16.0530654,3.22828571 16.4027797,3.57285714 C16.8176369,3.98171429 17.0319226,4.38628571 17.0387797,4.77285714 C17.0456369,5.168 16.836494,5.594 16.4182083,6.038 C16.3976369,6.06028571 16.3633512,6.09457143 16.3230654,6.13657143 C16.1653512,5.71828571 15.8876369,5.17914286 15.4067797,4.68114286 C14.9156369,4.172 14.4176369,3.872 14.0182083,3.69457143 L14.088494,3.62257143 Z M2.50677973,18.4922857 C2.55906545,18.4922857 2.61135116,18.4837143 2.66277973,18.4665714 C2.69963687,18.4545714 6.37249402,17.234 6.97763687,17.048 C7.05735116,17.024 7.1302083,16.9794286 7.18935116,16.9185714 C7.57163687,16.5311429 16.548494,7.406 17.1442083,6.77342857 C17.760494,6.12028571 18.066494,5.44142857 18.054494,4.75314286 C18.042494,4.07428571 17.7227797,3.42028571 17.1039226,2.81 C16.5587797,2.27257143 15.9562083,2 15.3133512,2 C14.3087797,2 13.5759226,2.66685714 13.3762083,2.87171429 C13.0942083,3.15885714 3.46935116,13.0554286 3.46935116,13.0554286 C3.40677973,13.1205714 3.36135116,13.2011429 3.33735116,13.2911429 C3.12049402,14.1157143 2.03277973,17.774 2.02249402,17.8108571 C1.96677973,17.9977143 2.01649402,18.2017143 2.1502083,18.3397143 C2.24706545,18.4391429 2.37563687,18.4922857 2.50677973,18.4922857 L2.50677973,18.4922857 Z" id="Fill-1"></path>
                </g>
            </g>
        </g>
    </g>
</svg>