<?xml version="1.0" encoding="UTF-8" standalone="no"?>
<svg width="20px" height="16px" viewBox="0 0 20 16" version="1.1" xmlns="http://www.w3.org/2000/svg" xmlns:xlink="http://www.w3.org/1999/xlink">
    <!-- Generator: Sketch 41.1 (35376) - http://www.bohemiancoding.com/sketch -->
    <title>icon_yulan</title>
    <desc>Created with Sketch.</desc>
    <defs></defs>
    <g id="icon" stroke="none" stroke-width="1" fill="none" fill-rule="evenodd">
        <g id="备注" transform="translate(-392.000000, -363.000000)" fill="#546576">
            <g id="Group-16" transform="translate(37.000000, 272.000000)">
                <g id="icon操作" transform="translate(129.000000, 65.000000)">
                    <path d="M235.947326,36.173028 C234.882673,36.173028 234.01911,35.3251043 234.01911,34.2783264 C234.01911,33.2315485 234.882673,32.3825077 235.947326,32.3825077 C237.013096,32.3825077 237.875542,33.2315485 237.875542,34.2783264 C237.875542,35.3251043 237.013096,36.173028 235.947326,36.173028 M235.947326,31.1190009 C234.17216,31.1190009 232.73326,32.5333241 232.73326,34.2783264 C232.73326,36.0222115 234.17216,37.4365347 235.947326,37.4365347 C237.722492,37.4365347 239.161392,36.0222115 239.161392,34.2783264 C239.161392,32.5333241 237.722492,31.1190009 235.947326,31.1190009 M235.987544,39.2921357 C231.749043,39.2921357 228.312662,34.2649205 228.312662,34.2649205 C228.312662,34.2649205 231.749043,29.2377053 235.987544,29.2377053 C240.224928,29.2377053 243.661308,34.2649205 243.661308,34.2649205 C243.661308,34.2649205 240.224928,39.2921357 235.987544,39.2921357 M235.999832,27.9998931 C231.029592,27.9998931 227,34.2783264 227,34.2783264 C227,34.2783264 231.029592,40.5556425 235.999832,40.5556425 C241.11642,40.6874672 244.999665,34.2783264 244.999665,34.2783264 C244.999665,34.2783264 240.970073,27.9998931 235.999832,27.9998931" id="Page-1"></path>
                </g>
            </g>
        </g>
    </g>
</svg>