<?xml version="1.0" encoding="UTF-8"?>
<svg width="40px" height="25px" viewBox="0 0 40 25" version="1.1" xmlns="http://www.w3.org/2000/svg" xmlns:xlink="http://www.w3.org/1999/xlink">
    <!-- Generator: Sketch 41.1 (35376) - http://www.bohemiancoding.com/sketch -->
    <title>icon－shaixuan－default copy</title>
    <desc>Created with Sketch.</desc>
    <defs></defs>
    <g id="Page-1" stroke="none" stroke-width="1" fill="none" fill-rule="evenodd">
        <g id="4.0.1_离职管理" transform="translate(-1161.000000, -119.000000)">
            <g id="筛选" transform="translate(1161.000000, 119.000000)">
                <g transform="translate(7.000000, 5.000000)" fill="#999999">
                    <path d="M11.6723258,2.97351086 C12.0367535,2.38769705 12.0796815,1.53446694 11.7688217,0.92328281 C11.452642,0.305603001 10.9863983,-1.41868837e-16 10.3808044,-1.41868837e-16 L1.59171141,0.0153238441 C1.44694909,0.0153238441 1.29695883,0.034460939 1.15760853,0.0789683538 C0.487714645,0.28274014 -0.00534978869,1.00225116 4.3822621e-05,1.87453088 C4.3822621e-05,2.39670018 0.171534891,2.84240859 0.477001055,3.20533539 C1.59703139,4.54243874 2.82708264,5.89418589 3.94716819,7.22490291 C3.98462894,7.26949781 3.99541616,7.30768452 3.99541616,7.37132903 L3.99541616,11.5117836 C3.99541616,11.5117836 4.06087494,12.0146523 4.51345062,12.0146523 C4.96602631,12.0146523 5.00539398,11.5117836 5.00539398,11.5117836 L5.00539398,7.15655899 C5.00539398,6.9591954 4.95182603,6.80004038 4.83390291,6.65361427 C3.6924454,5.30367266 2.55260317,4.0481614 1.41646564,2.69830728 C1.36289769,2.63457528 1.22190854,2.42052062 1.17364216,2.35046792 C1.02897188,2.12123833 0.937777471,1.88344768 1.01284623,1.60962319 C1.10926854,1.26576787 1.25942445,1.05957496 1.5863178,1.05957496 L10.4557995,1.04425112 C10.8899024,1.06970892 11.1328185,1.55342887 11.0094833,2.05005288 C10.9720226,2.21563796 10.9091893,2.34925059 10.812767,2.4702189 C9.61766794,3.89012572 8.43163321,5.3783753 7.23653412,6.79187393 C7.11329102,6.93197934 7.02413177,7.01472313 7.02413177,7.22490311 L7.02413177,14.5090494 C7.02413177,14.5090494 7.03975677,15.0069008 7.49239349,15.0069008 C7.94503021,15.0069008 7.97188832,14.5090499 7.97188832,14.5090499 C7.97188832,14.5090499 8.02013588,9.82109474 8.02013588,7.50345039 C8.02013588,7.4397184 8.07009349,7.41583625 8.10762787,7.37132883 C9.25447899,6.00874581 10.3165044,4.61623908 11.4633556,3.25365606 C11.4633556,3.25365606 11.6080442,3.06902137 11.6723258,2.97351086 Z M9.40421417,8.01534711 C9.18189268,8.01534711 8.99996171,8.19819793 8.99996171,8.42176499 L8.99996171,8.45557111 C8.99996171,8.67916144 9.18189268,8.86201226 9.40421417,8.86201226 L13.5957092,8.86201226 C13.8180307,8.86201226 13.9999617,8.67916144 13.9999617,8.45557111 L13.9999617,8.42176499 C13.9999617,8.19819793 13.8180307,8.01534711 13.5957092,8.01534711 L9.40421417,8.01534711 Z M9.40421417,10.0153238 C9.18189268,10.0153238 8.99996171,10.1981979 8.99996171,10.4216719 L8.99996171,10.4555711 C8.99996171,10.6791614 9.18189268,10.8620123 9.40421417,10.8620123 L13.5957092,10.8620123 C13.8180307,10.8620123 13.9999617,10.6790684 13.9999617,10.4555711 L13.9999617,10.4216719 C13.9999617,10.1981979 13.8180307,10.0153238 13.5957092,10.0153238 L9.40421417,10.0153238 Z M13.5957092,12.0153238 L9.40421417,12.0153238 C9.18189268,12.0153238 8.99996171,12.1982677 8.99996171,12.421765 L8.99996171,12.4556642 C8.99996171,12.6791382 9.18189268,12.8620123 9.40421417,12.8620123 L13.5957092,12.8620123 C13.8180307,12.8620123 13.9999617,12.6791382 13.9999617,12.4556642 L13.9999617,12.421765 C13.9999617,12.1982677 13.8180307,12.0153238 13.5957092,12.0153238 Z" id="icon－筛选"></path>
                    <path d="M23,10.7017346 C22.8776307,10.7322727 22.7528089,10.7074499 22.6687314,10.6233724 L20.0526033,8.00724435 C19.913841,7.86848204 19.9364798,7.61873828 20.1030147,7.45220334 L20.1281942,7.42702381 C20.2947119,7.26050619 20.5444556,7.23786742 20.6832179,7.37662972 L23,9.69341179 L25.3167821,7.37662972 C25.4555444,7.23786742 25.7052881,7.26050619 25.8718058,7.42702381 L25.8969853,7.45220334 C26.0635202,7.61873828 26.086159,7.86848204 25.9473967,8.00724435 L23.3312686,10.6233724 C23.2471911,10.7074499 23.1223693,10.7322727 23,10.7017346 Z" id="icon－下拉"></path>
                </g>
                <rect id="Rectangle-763" x="0" y="0" width="40" height="25"></rect>
            </g>
        </g>
    </g>
</svg>