<?xml version="1.0" encoding="UTF-8" standalone="no"?>
<svg width="20px" height="21px" viewBox="0 0 20 21" version="1.1" xmlns="http://www.w3.org/2000/svg" xmlns:xlink="http://www.w3.org/1999/xlink">
    <!-- Generator: Sketch 41.1 (35376) - http://www.bohemiancoding.com/sketch -->
    <title>icon－daochu－shuchu－default</title>
    <desc>Created with Sketch.</desc>
    <defs></defs>
    <g id="icon" stroke="none" stroke-width="1" fill="none" fill-rule="evenodd">
        <g id="备注" transform="translate(-137.000000, -573.000000)" fill="#D8D8D8">
            <g id="Group-16" transform="translate(37.000000, 272.000000)">
                <g id="Group-16-Copy" transform="translate(13.000000, 255.000000)">
                    <g id="Group-5" transform="translate(0.000000, 47.000000)">
                        <g id="Group-3">
                            <g id="shanchu" transform="translate(56.000000, 0.000000)">
                                <g id="icon">
                                    <path d="M47.3632213,11.9090909 C47.5383977,11.9090909 47.6886675,11.9713574 47.8132005,12.0958904 C47.9377335,12.2204234 48,12.369863 48,12.5458697 L48,15.090494 C48,15.6210046 47.8156912,16.0701536 47.4479037,16.4379411 C47.0734745,16.8123703 46.6259859,17 46.1054379,17 L35.909506,17 C35.3889581,17 34.9381486,16.8140307 34.5570776,16.4429224 C34.1859693,16.0618514 34,15.6110419 34,15.090494 L34,12.5458697 C34,12.369863 34.0622665,12.2204234 34.1867995,12.0958904 C34.3113325,11.9713574 34.4616023,11.9090909 34.6367787,11.9090909 C34.8127854,11.9090909 34.962225,11.9713574 35.086758,12.0958904 C35.211291,12.2204234 35.2735575,12.369863 35.2735575,12.5458697 L35.2735575,15.090494 C35.2735575,15.2665006 35.335824,15.4167704 35.460357,15.5413034 C35.58489,15.6650062 35.7343296,15.7272727 35.9103362,15.7272727 L46.1062682,15.7272727 C46.2789539,15.7272727 46.4259029,15.6650062 46.5462848,15.5413034 C46.6674969,15.4167704 46.7281029,15.2665006 46.7281029,15.090494 L46.7281029,12.5458697 C46.7281029,12.369863 46.7903694,12.2204234 46.9149024,12.0958904 C47.0386052,11.9713574 47.1888751,11.9090909 47.3640515,11.9090909 L47.3632213,11.9090909 Z M41.0751349,3.00083022 C41.2544624,3.00083022 41.4047323,3.0622665 41.5276048,3.18430884 L44.7090079,6.36654213 C44.8318804,6.48858447 44.8933167,6.63968452 44.8933167,6.81901204 C44.8933167,7.00083022 44.8327107,7.15276048 44.7114985,7.27314238 C44.5911166,7.3943545 44.4391864,7.45496056 44.256538,7.45496056 C44.0780407,7.45496056 43.9269406,7.39352428 43.8040681,7.27148194 L41.7119137,5.17351598 L41.7119137,12.5458697 C41.7119137,12.7210461 41.6496472,12.8713159 41.5251142,12.9958489 C41.4005812,13.1203819 41.2511416,13.1826484 41.0751349,13.1826484 C40.8991283,13.1826484 40.7496887,13.1203819 40.6251557,12.9958489 C40.5006227,12.8713159 40.4383562,12.7210461 40.4383562,12.5458697 L40.4383562,5.17351598 L38.3462017,7.27148194 C38.2166874,7.39352428 38.0655874,7.45496056 37.8929016,7.45496056 C37.7177252,7.45496056 37.5674554,7.39269406 37.4429224,7.26816106 C37.3192196,7.14445828 37.2569531,6.99418846 37.2569531,6.81818182 C37.2569531,6.64549606 37.3175592,6.49522623 37.4404317,6.36571191 L40.6218348,3.18430884 C40.7447073,3.06143628 40.8958074,3 41.0743047,3 L41.0751349,3.00083022 Z" id="Fill-1"></path>
                                </g>
                            </g>
                        </g>
                    </g>
                </g>
            </g>
        </g>
    </g>
</svg>