<?xml version="1.0" encoding="UTF-8" standalone="no"?>
<svg width="100px" height="36px" viewBox="0 0 100 36" version="1.1" xmlns="http://www.w3.org/2000/svg" xmlns:xlink="http://www.w3.org/1999/xlink">
    <!-- Generator: Sketch 41.1 (35376) - http://www.bohemiancoding.com/sketch -->
    <title>logo</title>
    <desc>Created with Sketch.</desc>
    <defs>
        <polygon id="path-1" points="0 0.812004545 0 10.79505 5.12845116 10.79505 5.12845116 0.812004545 3.18326801e-20 0.812004545"></polygon>
    </defs>
    <g id="候选人列表" stroke="none" stroke-width="1" fill="none" fill-rule="evenodd">
        <g id="1.0.1-PC-offer管理-offer预览" transform="translate(-228.000000, -171.000000)">
            <g id="录取通知书" transform="translate(187.000000, 147.000000)">
                <g id="logo" transform="translate(41.000000, 24.000000)">
                    <path d="M48.2211581,21.8029193 L48.3620884,26.1581523 C49.6222395,25.8064875 56.7814953,23.7717716 59.1667395,23.1354818 L59.5167163,19.2013057 L48.2211581,21.8029193 Z" id="Fill-1" fill="#152732"></path>
                    <polygon id="Fill-3" fill="#152732" points="57.8194465 8.42660284 51.9567488 4.90525057 51.522214 8.7065233 57.6655977 10.8541483"></polygon>
                    <polygon id="Fill-5" fill="#152732" points="56.5314616 12.3536045 50.674636 11.5173716 50.9165663 15.0116727 56.6829616 14.6329568"></polygon>
                    <polygon id="Fill-7" fill="#3FA348" points="6.26775465 6.63711136 3.76154535 7.09227614 2.39217326 7.32162273 3.76154535 14.2831739 7.98005698 35.9781852 10.0329407 35.5218443 11.7428942 35.1807648 10.0329407 26.1586227"></polygon>
                    <g id="Group-11" transform="translate(0.000000, 15.984220)">
                        <mask id="mask-2" fill="white">
                            <use xlink:href="#path-1"></use>
                        </mask>
                        <g id="Clip-10"></g>
                        <polygon id="Fill-9" fill="#3FA348" mask="url(#mask-2)" points="3.5335907 0.812004545 -0.000234883721 1.49533977 1.7097186 10.6303909 1.74142791 10.79505 2.05147442 10.6303909 3.76142791 9.71653295 5.12845116 9.03555 3.76142791 2.06576591"></polygon>
                    </g>
                    <polygon id="Fill-12" fill="#3FA348" points="14.1205047 23.2328659 13.7951907 21.8203261 12.087586 12.6864511 10.0335279 13.0275307 8.3224 13.3709625 10.0335279 22.5060136 10.2590163 23.8738602"></polygon>
                    <path d="M45.2598616,15.655725 L45.2598616,10.7441795 L41.1576174,11.3157818 L41.0390012,15.4263784 L34.7676058,15.3146455 L34.8862221,8.00495795 L50.1583616,6.29367955 L50.1583616,2.98285568 L30.8943733,4.92112841 L30.2085128,5.03874205 L30.2085128,18.9641966 L30.8943733,18.9641966 L40.9274314,18.6219409 L40.9274314,26.3867932 L37.2808616,26.9560432 L37.1645942,28.0980716 C37.8445826,28.326242 38.8745477,28.5555886 40.2450942,28.8978443 C41.6097686,29.2424523 43.3267686,29.5835318 45.2598616,29.9257875 L45.2598616,18.6219409 L51.7590942,18.2808614 L51.7590942,15.8827193 L45.2598616,15.655725 Z" id="Fill-14" fill="#3FA348"></path>
                    <polygon id="Fill-16" fill="#3FA348" points="33.2908919 27.8719006 37.3884384 21.3643381 34.5392988 20.1105767 30.8939035 24.6728097 29.8792058 25.8924631"></polygon>
                    <path d="M23.1466163,18.3962403 L22.4607558,18.6220585 L22.3444884,12.9119165 L23.1466163,12.7990074 L23.5999419,12.6872744 L24.0532674,18.1680699 L23.1466163,18.3962403 Z M20.488907,33.7918653 L21.5458837,25.5871381 L27.6998372,32.5533937 L30.8942558,29.5836494 L31.4650233,29.010871 L30.8942558,28.441621 L24.1660116,21.8199733 L30.5536744,20.5638597 L29.7527209,16.9107801 L28.0404186,17.2518597 L26.7896628,8.23324602 L23.1466163,8.91775739 L21.888814,9.25883693 L21.7713721,4.35199602 L18.468907,4.69189943 L17.9016628,4.8071608 L18.2375465,10.4032176 L13.7947209,11.6593312 L13.4529651,11.7710642 L13.7947209,13.2553483 L14.0213837,14.7419847 L18.1236279,13.9422119 L18.1236279,19.8805244 L14.2492209,20.7943824 L14.9315581,23.8735074 L17.6667791,23.5300756 L16.3021047,33.1214676 L20.488907,33.7918653 Z" id="Fill-18" fill="#3FA348"></path>
                    <g id="Group-22" transform="translate(58.720930, 0.336493)" fill="#152732">
                        <path d="M20.0614186,19.4265358 L20.4031744,15.6581949 L25.7573488,15.6581949 L31.5742442,15.6581949 L31.2289651,19.4265358 L25.7573488,19.4265358 L20.0614186,19.4265358 Z M38.7581628,24.6838653 L38.0699535,27.9899847 L30.4338837,28.105246 L30.6617209,23.1937006 L35.451,23.1937006 L37.0482093,11.889854 L28.8390233,11.5499506 L29.4074419,8.58138239 L36.8180233,8.58138239 L37.1621279,4.70130852 L29.8689884,4.58487102 L30.5442791,0.0214619318 L25.7573488,0.0214619318 L25.3028488,0.0214619318 L24.5030698,4.81304148 L15.3837093,5.0435642 L15.8393837,8.58138239 L23.937,8.58138239 L23.3650581,12.0074676 L19.8335814,12.1215528 L20.0614186,11.6616835 L16.6438605,11.4346892 L15.3837093,22.9702347 L19.2592907,23.0819676 C17.8946163,25.3648483 16.4089767,26.3927915 14.2445233,27.4207347 L9.797,17.2577403 L15.1546977,17.2577403 L15.1546977,14.0610017 L9.6830814,13.8340074 L9.90856977,9.26706989 L14.8152907,8.1226892 L13.1053372,4.81304148 L2.04348837,8.01213239 L2.04348837,10.9783483 L6.37826744,9.95158125 L5.80867442,13.718746 L0.450976744,13.718746 L0.219616279,13.718746 L0.219616279,17.1436551 L0.450976744,17.1436551 L4.89615116,17.1436551 L1.59251163,28.3345926 L5.46339535,28.674496 L5.79693023,28.7156608 L5.80867442,28.674496 L7.7452907,21.3671608 C8.09056977,22.3962801 8.54272093,23.4230472 9.00074419,24.6838653 C9.56798837,25.9352744 10.1375814,27.3078256 10.8246163,28.7909335 L10.8410581,28.829746 L10.9385349,28.7909335 L11.7347907,28.4510301 L14.1317791,31.0749903 C19.0338023,29.0167517 21.5400116,27.7618142 23.5928953,23.0819676 L25.4191163,23.1937006 L25.530686,31.4160699 L25.7573488,31.4160699 L40.5749884,31.5278028 L41.1504535,24.7944222 L38.7581628,24.6838653 Z" id="Fill-20"></path>
                    </g>
                </g>
            </g>
        </g>
    </g>
</svg>