<?xml version="1.0" encoding="UTF-8" standalone="no"?>
<svg width="16px" height="16px" viewBox="0 0 16 16" version="1.1" xmlns="http://www.w3.org/2000/svg" xmlns:xlink="http://www.w3.org/1999/xlink">
    <!-- Generator: Sketch 39.1 (31720) - http://www.bohemiancoding.com/sketch -->
    <title>xuanze－danxuan</title>
    <desc>Created with Sketch.</desc>
    <defs></defs>
    <g id="后台权限管理" stroke="none" stroke-width="1" fill="none" fill-rule="evenodd">
        <g id="状态汇总" transform="translate(-349.000000, -401.000000)">
            <g id="单选" transform="translate(349.000000, 401.000000)">
                <path d="M8,15 C11.8659932,15 15,11.8659932 15,8 C15,4.13400675 11.8659932,1 8,1 C4.13400675,1 1,4.13400675 1,8 C1,11.8659932 4.13400675,15 8,15 Z" id="Oval" stroke="#B0BDCA"></path>
                <path d="M8,12.6666667 C10.5773288,12.6666667 12.6666667,10.5773288 12.6666667,8 C12.6666667,5.42267117 10.5773288,3.33333333 8,3.33333333 C5.42267117,3.33333333 3.33333333,5.42267117 3.33333333,8 C3.33333333,10.5773288 5.42267117,12.6666667 8,12.6666667 Z" id="Oval" fill="#B0BDCA"></path>
                <rect id="xuanze－danxuan" x="0" y="0" width="16" height="16"></rect>
            </g>
        </g>
    </g>
</svg>